<?xml version="1.0" encoding="UTF-8"?>
<!DOCTYPE svg PUBLIC "-//W3C//DTD SVG 1.1//EN" "http://www.w3.org/Graphics/SVG/1.1/DTD/svg11.dtd">
<!-- Creator: CorelDRAW -->
<svg xmlns="http://www.w3.org/2000/svg" xml:space="preserve" width="407.591mm" height="288.164mm" version="1.1" style="shape-rendering:geometricPrecision; text-rendering:geometricPrecision; image-rendering:optimizeQuality; fill-rule:evenodd; clip-rule:evenodd"
viewBox="0 0 25984.94 18371.17"
 xmlns:xlink="http://www.w3.org/1999/xlink"
 xmlns:xodm="http://www.corel.com/coreldraw/odm/2003">
 <defs>
  <style type="text/css">
   <![CDATA[
    .fil224 {fill:none}
    .fil82 {fill:#D1D2D4}
    .fil81 {fill:#D0D2D3}
    .fil80 {fill:#CFD0D2}
    .fil79 {fill:#CECFD1}
    .fil78 {fill:#CCCECF}
    .fil77 {fill:#CBCDCF}
    .fil76 {fill:#CACCCE}
    .fil75 {fill:#C9CBCC}
    .fil74 {fill:#C8CACC}
    .fil73 {fill:#C6C8CA}
    .fil72 {fill:#C6C7C9}
    .fil71 {fill:#C4C6C8}
    .fil70 {fill:#C3C5C7}
    .fil69 {fill:#C2C4C6}
    .fil68 {fill:#C1C3C5}
    .fil67 {fill:#C0C2C4}
    .fil66 {fill:#BEC0C2}
    .fil65 {fill:#BEBFC1}
    .fil64 {fill:#BCBEC0}
    .fil63 {fill:#BBBDBF}
    .fil62 {fill:#BABBBE}
    .fil61 {fill:#B9BBBD}
    .fil60 {fill:#B8BABC}
    .fil59 {fill:#B6B8BB}
    .fil58 {fill:#B6B8BA}
    .fil57 {fill:#B4B6B8}
    .fil56 {fill:#B3B5B7}
    .fil55 {fill:#B2B4B6}
    .fil54 {fill:#B1B3B5}
    .fil53 {fill:#B0B2B4}
    .fil52 {fill:#AFB1B3}
    .fil51 {fill:#AEB0B2}
    .fil50 {fill:#ACAEB1}
    .fil49 {fill:#ABADB0}
    .fil48 {fill:#AAACAE}
    .fil47 {fill:#A9ABAE}
    .fil46 {fill:#A8AAAC}
    .fil45 {fill:#A7A9AB}
    .fil44 {fill:#A6A8AB}
    .fil43 {fill:#A5A7A9}
    .fil42 {fill:#A4A6A8}
    .fil41 {fill:#A2A4A7}
    .fil40 {fill:#A2A4A6}
    .fil39 {fill:#A0A2A5}
    .fil38 {fill:#9FA1A4}
    .fil37 {fill:#9FA1A3}
    .fil36 {fill:#9D9FA2}
    .fil35 {fill:#9C9EA1}
    .fil34 {fill:#9B9D9F}
    .fil33 {fill:#9A9C9F}
    .fil32 {fill:#999B9D}
    .fil31 {fill:#989A9C}
    .fil30 {fill:#97999B}
    .fil29 {fill:#96989A}
    .fil222 {fill:#373435}
    .fil83 {fill:#D0D2D3}
    .fil84 {fill:#D0D1D2}
    .fil85 {fill:#CFD0D1}
    .fil86 {fill:#CDCFD0}
    .fil87 {fill:#CDCECF}
    .fil88 {fill:#CCCDCE}
    .fil89 {fill:#CCCCCD}
    .fil90 {fill:#CBCBCD}
    .fil91 {fill:#CACBCC}
    .fil92 {fill:#C9CACB}
    .fil93 {fill:#C8C9CA}
    .fil94 {fill:#C8C8C9}
    .fil95 {fill:#C7C7C8}
    .fil96 {fill:#C6C6C8}
    .fil97 {fill:#C6C6C7}
    .fil98 {fill:#C4C4C5}
    .fil99 {fill:#C4C4C5}
    .fil100 {fill:#C3C4C5}
    .fil101 {fill:#C2C2C3}
    .fil102 {fill:#C2C2C2}
    .fil103 {fill:#C1C1C2}
    .fil104 {fill:#BFBFC0}
    .fil105 {fill:#BFBFBF}
    .fil106 {fill:#BEBEBF}
    .fil107 {fill:#BDBDBE}
    .fil108 {fill:#BCBCBD}
    .fil206 {fill:#D2D3D4}
    .fil109 {fill:#BCBCBD}
    .fil205 {fill:#D1D2D3}
    .fil110 {fill:#BBBBBC}
    .fil204 {fill:#D1D1D2}
    .fil207 {fill:#D0D0D1}
    .fil111 {fill:#BABABB}
    .fil203 {fill:#CFD0D1}
    .fil208 {fill:#CFCFD0}
    .fil112 {fill:#BABABA}
    .fil202 {fill:#CECFD0}
    .fil201 {fill:#CDCECF}
    .fil113 {fill:#B8B8B9}
    .fil200 {fill:#CCCDCE}
    .fil209 {fill:#CBCDCE}
    .fil199 {fill:#CBCCCD}
    .fil114 {fill:#B8B7B8}
    .fil198 {fill:#CACCCD}
    .fil115 {fill:#B8B7B8}
    .fil197 {fill:#CACBCC}
    .fil196 {fill:#C9CACB}
    .fil116 {fill:#B6B6B7}
    .fil195 {fill:#C7C8C9}
    .fil117 {fill:#B6B6B6}
    .fil194 {fill:#C6C7C8}
    .fil193 {fill:#C5C6C7}
    .fil118 {fill:#B5B4B6}
    .fil192 {fill:#C4C5C6}
    .fil210 {fill:#C4C5C6}
    .fil119 {fill:#B4B4B5}
    .fil191 {fill:#C3C4C5}
    .fil120 {fill:#B3B3B4}
    .fil190 {fill:#C2C3C4}
    .fil189 {fill:#C1C2C3}
    .fil121 {fill:#B2B2B3}
    .fil188 {fill:#C0C1C2}
    .fil187 {fill:#BFC0C2}
    .fil211 {fill:#BFC0C1}
    .fil122 {fill:#B1B2B3}
    .fil186 {fill:#BEC0C1}
    .fil212 {fill:#BFBFC0}
    .fil123 {fill:#B1B1B2}
    .fil185 {fill:#BEBFC0}
    .fil213 {fill:#BEBEBF}
    .fil184 {fill:#BDBEBF}
    .fil124 {fill:#B0B0B1}
    .fil214 {fill:#BCBDBF}
    .fil183 {fill:#BCBDBE}
    .fil125 {fill:#AFAFB1}
    .fil215 {fill:#BBBDBE}
    .fil182 {fill:#BBBCBD}
    .fil216 {fill:#BABCBD}
    .fil181 {fill:#BABBBC}
    .fil126 {fill:#AEAEB0}
    .fil217 {fill:#B9BBBC}
    .fil180 {fill:#B9BABB}
    .fil127 {fill:#ADAEAF}
    .fil179 {fill:#B8B9BA}
    .fil128 {fill:#ADADAE}
    .fil178 {fill:#B7B8BA}
    .fil177 {fill:#B6B8BA}
    .fil218 {fill:#B6B7B9}
    .fil129 {fill:#ABACAD}
    .fil176 {fill:#B5B7B9}
    .fil130 {fill:#ABABAC}
    .fil175 {fill:#B5B6B8}
    .fil174 {fill:#B4B5B7}
    .fil131 {fill:#AAABAB}
    .fil219 {fill:#B3B4B6}
    .fil173 {fill:#B2B3B5}
    .fil172 {fill:#B1B2B4}
    .fil132 {fill:#A8A9AA}
    .fil171 {fill:#B1B1B3}
    .fil133 {fill:#A8A8AA}
    .fil170 {fill:#B0B0B2}
    .fil169 {fill:#AFAFB1}
    .fil134 {fill:#A7A8A9}
    .fil135 {fill:#A7A6A7}
    .fil1 {fill:#ADAEB0}
    .fil2 {fill:#ADAEAF}
    .fil136 {fill:#A5A6A7}
    .fil3 {fill:#ACADAF}
    .fil4 {fill:#ABACAE}
    .fil137 {fill:#A4A5A7}
    .fil5 {fill:#AAACAD}
    .fil138 {fill:#A4A4A5}
    .fil6 {fill:#A9ABAD}
    .fil7 {fill:#A9AAAC}
    .fil139 {fill:#A3A3A5}
    .fil8 {fill:#A8A9AB}
    .fil168 {fill:#A7A8AA}
    .fil140 {fill:#A2A3A4}
    .fil9 {fill:#A6A8AA}
    .fil167 {fill:#A6A7A9}
    .fil141 {fill:#A1A2A4}
    .fil10 {fill:#A6A7A9}
    .fil166 {fill:#A6A7A8}
    .fil11 {fill:#A5A6A8}
    .fil165 {fill:#A5A6A7}
    .fil142 {fill:#A0A1A3}
    .fil12 {fill:#A4A6A7}
    .fil143 {fill:#A0A1A2}
    .fil164 {fill:#A3A5A7}
    .fil13 {fill:#A3A5A6}
    .fil163 {fill:#A3A5A6}
    .fil14 {fill:#A3A4A6}
    .fil144 {fill:#9EA0A1}
    .fil162 {fill:#A2A4A6}
    .fil15 {fill:#A2A3A5}
    .fil161 {fill:#A1A3A5}
    .fil145 {fill:#9D9FA0}
    .fil16 {fill:#A1A2A4}
    .fil160 {fill:#A0A2A4}
    .fil146 {fill:#9D9EA0}
    .fil17 {fill:#A0A1A3}
    .fil18 {fill:#9EA0A1}
    .fil147 {fill:#9B9D9F}
    .fil19 {fill:#9D9FA0}
    .fil148 {fill:#9B9D9E}
    .fil20 {fill:#9D9FA0}
    .fil159 {fill:#9D9EA0}
    .fil21 {fill:#9C9EA0}
    .fil158 {fill:#9C9D9F}
    .fil149 {fill:#9A9C9D}
    .fil22 {fill:#9B9D9F}
    .fil157 {fill:#9B9D9E}
    .fil23 {fill:#9B9C9E}
    .fil150 {fill:#999B9C}
    .fil156 {fill:#9A9C9E}
    .fil24 {fill:#9A9C9D}
    .fil151 {fill:#999B9C}
    .fil155 {fill:#999B9D}
    .fil25 {fill:#989B9C}
    .fil152 {fill:#989A9B}
    .fil26 {fill:#989A9C}
    .fil153 {fill:#97999A}
    .fil27 {fill:#97999B}
    .fil154 {fill:#96989A}
    .fil28 {fill:#96989A}
    .fil0 {fill:url(#id7)}
    .fil220 {fill:url(#id8)}
    .fil221 {fill:url(#id9)}
    .fil223 {fill:url(#id10)}
   ]]>
  </style>
   <clipPath id="id0">
    <path d="M-0 0l25984.94 0 0 18371.17 -25984.94 0 0 -18371.17z"/>
   </clipPath>
     <clipPath id="id1">
      <path d="M518.06 340.65l25466.88 0 0 18030.52 -25466.88 0 0 -18030.52z"/>
     </clipPath>
     <clipPath id="id2">
      <path d="M-0 0l25984.94 0 0 18371.17 -25984.94 0 0 -18371.17z"/>
     </clipPath>
     <clipPath id="id3">
      <path d="M156.26 340.65l25466.88 0 0 18030.52 -25466.88 0 0 -18030.52z"/>
     </clipPath>
     <clipPath id="id4">
      <path d="M-0 0l25984.94 0 0 18371.17 -25984.94 0 0 -18371.17z"/>
     </clipPath>
      <clipPath id="id5">
       <path d="M7746.36 12024.89l-2578.3 -89.49 -506.53 -615.06 10590.26 -6998.64 2540.11 -619.79 506.53 615.06 -3051.65 7634.7 -3005.57 -1.79 -506.53 -615.06 451.28 -655.25 -2728.85 -21.99 -1710.75 1367.32zm5946.86 -2989.27l-2010.48 -27.04 3352.8 -2717.14 -1342.33 2744.18z"/>
      </clipPath>
      <clipPath id="id6">
       <path d="M-0 0l25984.94 0 0 18371.17 -25984.94 0 0 -18371.17z"/>
      </clipPath>
  <linearGradient id="id7" gradientUnits="userSpaceOnUse" x1="15201.39" y1="10559.18" x2="25100.57" y2="5445.48">
   <stop offset="0" style="stop-opacity:1; stop-color:#F8B330"/>
   <stop offset="0.2" style="stop-opacity:1; stop-color:#FFE3A5"/>
   <stop offset="0.458824" style="stop-opacity:1; stop-color:#F7B330"/>
   <stop offset="0.741176" style="stop-opacity:1; stop-color:#FFE3A4"/>
   <stop offset="1" style="stop-opacity:1; stop-color:#F7B330"/>
  </linearGradient>
  <linearGradient id="id8" gradientUnits="userSpaceOnUse" x1="1139.84" y1="13365.06" x2="11185.04" y2="6435.81">
   <stop offset="0" style="stop-opacity:1; stop-color:#2F456B"/>
   <stop offset="0.168627" style="stop-opacity:1; stop-color:#99DAF4"/>
   <stop offset="0.478431" style="stop-opacity:1; stop-color:#30466B"/>
   <stop offset="0.741176" style="stop-opacity:1; stop-color:#99DAF5"/>
   <stop offset="1" style="stop-opacity:1; stop-color:#30466B"/>
  </linearGradient>
  <linearGradient id="id9" gradientUnits="userSpaceOnUse" x1="24686.78" y1="8097.53" x2="14617.77" y2="6677">
   <stop offset="0" style="stop-opacity:1; stop-color:#FFF212"/>
   <stop offset="1" style="stop-opacity:1; stop-color:#FFFAB0"/>
  </linearGradient>
  <linearGradient id="id10" gradientUnits="userSpaceOnUse" x1="418.06" y1="9585.89" x2="10747.97" y2="9585.89">
   <stop offset="0" style="stop-opacity:1; stop-color:#00AFEF"/>
   <stop offset="1" style="stop-opacity:1; stop-color:#C1EBFB"/>
  </linearGradient>
 </defs>
 <g id="Camada_x0020_1">
  <metadata id="CorelCorpID_0Corel-Layer"/>
  <g>
  </g>
  <g style="clip-path:url(#id0)">
   <g id="_1557031935008">
    <g>
    </g>
    <g style="clip-path:url(#id1)">
     <image x="518.06" y="340.65" width="25466.88" height="18030.52" xlink:href="adiant_Images\adiant_ImgID1.jpg"/>
    </g>
    <g style="clip-path:url(#id2)">
    </g>
    <g style="clip-path:url(#id3)">
     <image x="156.26" y="340.65" width="25466.88" height="18030.52" xlink:href="adiant_Images\adiant_ImgID2.jpg"/>
    </g>
    <g style="clip-path:url(#id4)">
     <path class="fil0" d="M15126.14 12172.78c173.04,346.63 346.37,693.86 475.68,1037.36 129.54,344.1 214.9,684.46 210.89,1018.87 -1.26,105.57 -765.08,297.1 -698.05,378.5l506.53 615.06c527.21,-44.26 1054.41,-88.53 1603.77,-189.85 549.35,-101.33 1120.51,-259.59 1697.33,-494.44 576.11,-234.56 1157.28,-545.32 1735.44,-927.54 577.03,-381.48 1150.66,-833.84 1765.5,-1493.95 612.75,-657.86 1265.15,-1520.66 1700.08,-2304.83 433.18,-780.99 651,-1484.62 802.84,-2178.17 151.3,-691.09 237.11,-1372.25 259.46,-1861.1 22.29,-487.62 -18.51,-784.86 -133.41,-1206.15 -114.66,-420.38 -302.95,-963.75 -685.43,-1520.02 -381.38,-554.7 -955.78,-1122.18 -1615.52,-1487.27 -658.51,-364.43 -1403.43,-527.98 -1830.33,-609.72 -426.71,-81.7 -536,-81.7 -1412.49,-95.99 -876.48,-14.3 -2520.14,-42.88 -4163.75,-71.46 -72.88,359.65 -145.9,719.99 -161.46,1050.21 -15.6,330.79 26.46,631.26 110.08,870.31 83.72,239.35 209.04,416.98 389.51,565.82 180.61,148.94 416.41,269 606.34,329.06 189.99,60.06 333.98,60.04 877.59,76.57 543.64,16.52 1486.99,49.58 1982,66.11 495.03,16.53 541.62,16.52 762.97,132.62 221.48,116.18 618.2,348.73 926.55,702.28 308.91,354.19 529.53,830.26 675.22,1326.38 146.06,497.38 216.83,1015.02 123.46,1572.12 -93.64,558.69 -352.43,1157.31 -630.69,1638.41 -278.94,482.3 -577.11,845.91 -862.94,1148.02 -286.27,302.59 -559.99,543.3 -904.65,782.18 -345.09,239.18 -761.29,476.54 -1171.82,653.7 -410.91,177.33 -815.89,294.26 -1162.79,365.79 -347.02,71.57 -635.76,97.66 -855.9,110.74 -220.16,13.09 -371.66,13.15 -513.9,11.04 -142.24,-2.1 -275.18,-6.38 -408.14,-10.65z"/>
     <g>
     </g>
     <g style="clip-path:url(#id5)">
      <polygon class="fil1" points="4564.72,11818.02 4569.95,11791.14 16396.72,14092.01 16391.49,14118.89 "/>
      <polygon id="_1" class="fil2" points="4566.74,11807.58 4576.34,11758.26 16403.11,14059.13 16393.52,14108.45 "/>
      <polygon id="_2" class="fil3" points="4573.15,11774.7 4582.74,11725.38 16409.51,14026.25 16399.91,14075.57 "/>
      <polygon id="_3" class="fil4" points="4579.54,11741.82 4589.13,11692.5 16415.91,13993.37 16406.31,14042.69 "/>
      <polygon id="_4" class="fil5" points="4585.93,11708.94 4595.53,11659.62 16422.3,13960.49 16412.71,14009.81 "/>
      <polygon id="_5" class="fil6" points="4592.34,11676.06 4601.93,11626.74 16428.7,13927.61 16419.1,13976.93 "/>
      <polygon id="_6" class="fil7" points="4598.73,11643.18 4608.32,11593.86 16435.1,13894.74 16425.5,13944.06 "/>
      <polygon id="_7" class="fil8" points="4605.12,11610.3 4614.72,11560.98 16441.49,13861.85 16431.9,13911.17 "/>
      <polygon id="_8" class="fil9" points="4611.52,11577.43 4621.12,11528.11 16447.89,13828.98 16438.29,13878.3 "/>
      <polygon id="_9" class="fil10" points="4617.92,11544.55 4627.51,11495.23 16454.29,13796.1 16444.69,13845.42 "/>
      <polygon id="_10" class="fil11" points="4624.31,11511.67 4633.91,11462.35 16460.68,13763.22 16451.09,13812.53 "/>
      <polygon id="_11" class="fil12" points="4630.71,11478.79 4640.31,11429.47 16467.08,13730.34 16457.48,13779.66 "/>
      <polygon id="_12" class="fil13" points="4637.11,11445.91 4646.7,11396.59 16473.48,13697.46 16463.88,13746.78 "/>
      <polygon id="_13" class="fil14" points="4643.5,11413.03 4653.1,11363.71 16479.87,13664.58 16470.28,13713.9 "/>
      <polygon id="_14" class="fil15" points="4649.9,11380.15 4659.5,11330.83 16486.27,13631.7 16476.67,13681.02 "/>
      <polygon id="_15" class="fil16" points="4656.3,11347.27 4665.89,11297.95 16492.67,13598.82 16483.07,13648.14 "/>
      <polygon id="_16" class="fil17" points="4662.69,11314.39 4672.29,11265.08 16499.06,13565.95 16489.47,13615.27 "/>
      <polygon id="_17" class="fil18" points="4669.09,11281.51 4678.69,11232.19 16505.46,13533.06 16495.86,13582.38 "/>
      <polygon id="_18" class="fil19" points="4675.49,11248.64 4685.08,11199.32 16511.86,13500.19 16502.26,13549.5 "/>
      <polygon id="_19" class="fil20" points="4681.88,11215.76 4691.48,11166.44 16518.25,13467.31 16508.66,13516.63 "/>
      <polygon id="_20" class="fil21" points="4688.28,11182.87 4697.88,11133.56 16524.64,13434.43 16515.05,13483.74 "/>
      <polygon id="_21" class="fil22" points="4694.68,11150 4704.27,11100.68 16531.05,13401.55 16521.45,13450.87 "/>
      <polygon id="_22" class="fil23" points="4701.07,11117.12 4710.67,11067.8 16537.44,13368.67 16527.85,13417.99 "/>
      <polygon id="_23" class="fil24" points="4707.47,11084.24 4717.07,11034.92 16543.83,13335.79 16534.24,13385.11 "/>
      <polygon id="_24" class="fil25" points="4713.87,11051.36 4723.46,11002.04 16550.24,13302.91 16540.64,13352.23 "/>
      <polygon id="_25" class="fil26" points="4720.26,11018.48 4729.86,10969.16 16556.63,13270.03 16547.03,13319.35 "/>
      <polygon id="_26" class="fil27" points="4726.66,10985.6 4736.26,10936.29 16563.02,13237.16 16553.43,13286.47 "/>
      <polygon id="_27" class="fil28" points="4733.06,10952.72 4742.65,10903.4 16569.42,13204.27 16559.83,13253.59 "/>
      <polygon id="_28" class="fil29" points="4739.46,10919.85 4749.05,10870.53 16575.82,13171.4 16566.22,13220.71 "/>
      <polygon id="_29" class="fil30" points="4745.85,10886.97 4755.45,10837.65 16582.21,13138.52 16572.62,13187.84 "/>
      <polygon id="_30" class="fil31" points="4752.25,10854.08 4761.84,10804.77 16588.61,13105.63 16579.02,13154.95 "/>
      <polygon id="_31" class="fil32" points="4758.65,10821.21 4768.24,10771.89 16595.01,13072.76 16585.41,13122.08 "/>
      <polygon id="_32" class="fil33" points="4765.04,10788.33 4774.64,10739.01 16601.4,13039.88 16591.81,13089.2 "/>
      <polygon id="_33" class="fil34" points="4771.43,10755.45 4781.03,10706.13 16607.8,13007 16598.21,13056.32 "/>
      <polygon id="_34" class="fil35" points="4777.84,10722.57 4787.43,10673.25 16614.2,12974.12 16604.6,13023.44 "/>
      <polygon id="_35" class="fil36" points="4784.23,10689.69 4793.82,10640.37 16620.59,12941.24 16611,12990.56 "/>
      <polygon id="_36" class="fil37" points="4790.62,10656.81 4800.22,10607.5 16626.99,12908.37 16617.4,12957.68 "/>
      <polygon id="_37" class="fil38" points="4797.02,10623.93 4806.62,10574.61 16633.39,12875.48 16623.79,12924.8 "/>
      <polygon id="_38" class="fil39" points="4803.42,10591.05 4813.01,10541.74 16639.78,12842.61 16630.19,12891.92 "/>
      <polygon id="_39" class="fil40" points="4809.81,10558.18 4819.41,10508.86 16646.18,12809.73 16636.59,12859.05 "/>
      <polygon id="_40" class="fil41" points="4816.21,10525.29 4825.81,10475.98 16652.58,12776.85 16642.98,12826.16 "/>
      <polygon id="_41" class="fil42" points="4822.61,10492.42 4832.2,10443.1 16658.97,12743.97 16649.38,12793.29 "/>
      <polygon id="_42" class="fil43" points="4829,10459.54 4838.6,10410.22 16665.37,12711.09 16655.78,12760.41 "/>
      <polygon id="_43" class="fil44" points="4835.4,10426.66 4845,10377.34 16671.77,12678.21 16662.17,12727.53 "/>
      <polygon id="_44" class="fil45" points="4841.8,10393.78 4851.39,10344.46 16678.17,12645.33 16668.57,12694.65 "/>
      <polygon id="_45" class="fil46" points="4848.19,10360.9 4857.79,10311.58 16684.56,12612.45 16674.97,12661.77 "/>
      <polygon id="_46" class="fil47" points="4854.59,10328.03 4864.19,10278.71 16690.96,12579.58 16681.36,12628.89 "/>
      <polygon id="_47" class="fil48" points="4860.99,10295.14 4870.58,10245.82 16697.36,12546.69 16687.76,12596.01 "/>
      <polygon id="_48" class="fil49" points="4867.38,10262.26 4876.98,10212.95 16703.75,12513.81 16694.16,12563.13 "/>
      <polygon id="_49" class="fil50" points="4873.78,10229.39 4883.38,10180.07 16710.15,12480.94 16700.55,12530.26 "/>
      <polygon id="_50" class="fil51" points="4880.18,10196.5 4889.77,10147.18 16716.55,12448.06 16706.95,12497.37 "/>
      <polygon id="_51" class="fil52" points="4886.57,10163.63 4896.17,10114.31 16722.94,12415.18 16713.35,12464.5 "/>
      <polygon id="_52" class="fil53" points="4892.97,10130.75 4902.57,10081.43 16729.33,12382.3 16719.74,12431.62 "/>
      <polygon id="_53" class="fil54" points="4899.37,10097.87 4908.96,10048.55 16735.74,12349.42 16726.14,12398.74 "/>
      <polygon id="_54" class="fil55" points="4905.76,10064.99 4915.36,10015.67 16742.13,12316.54 16732.54,12365.86 "/>
      <polygon id="_55" class="fil56" points="4912.16,10032.11 4921.76,9982.79 16748.52,12283.66 16738.93,12332.98 "/>
      <polygon id="_56" class="fil57" points="4918.56,9999.23 4928.15,9949.92 16754.93,12250.79 16745.33,12300.1 "/>
      <polygon id="_57" class="fil58" points="4924.95,9966.35 4934.55,9917.03 16761.32,12217.9 16751.72,12267.22 "/>
      <polygon id="_58" class="fil59" points="4931.35,9933.47 4940.95,9884.16 16767.71,12185.02 16758.12,12234.34 "/>
      <polygon id="_59" class="fil60" points="4937.75,9900.6 4947.34,9851.28 16774.11,12152.15 16764.52,12201.47 "/>
      <polygon id="_60" class="fil61" points="4944.14,9867.71 4953.73,9818.39 16780.51,12119.27 16770.91,12168.58 "/>
      <polygon id="_61" class="fil62" points="4950.54,9834.84 4960.14,9785.52 16786.9,12086.39 16777.31,12135.71 "/>
      <polygon id="_62" class="fil63" points="4956.94,9801.96 4966.53,9752.64 16793.3,12053.51 16783.71,12102.83 "/>
      <polygon id="_63" class="fil64" points="4963.33,9769.08 4972.92,9719.76 16799.7,12020.63 16790.1,12069.95 "/>
      <polygon id="_64" class="fil65" points="4969.73,9736.2 4979.32,9686.88 16806.09,11987.75 16796.5,12037.07 "/>
      <polygon id="_65" class="fil66" points="4976.12,9703.32 4985.72,9654 16812.49,11954.87 16802.9,12004.19 "/>
      <polygon id="_66" class="fil67" points="4982.52,9670.44 4992.11,9621.13 16818.89,11921.99 16809.29,11971.31 "/>
      <polygon id="_67" class="fil68" points="4988.92,9637.56 4998.51,9588.24 16825.28,11889.11 16815.69,11938.43 "/>
      <polygon id="_68" class="fil69" points="4995.31,9604.68 5004.91,9555.36 16831.68,11856.23 16822.09,11905.55 "/>
      <polygon id="_69" class="fil70" points="5001.71,9571.81 5011.3,9522.49 16838.08,11823.36 16828.48,11872.68 "/>
      <polygon id="_70" class="fil71" points="5008.11,9538.92 5017.7,9489.6 16844.47,11790.48 16834.88,11839.8 "/>
      <polygon id="_71" class="fil72" points="5014.5,9506.05 5024.1,9456.73 16850.87,11757.6 16841.28,11806.92 "/>
      <polygon id="_72" class="fil73" points="5020.9,9473.17 5030.49,9423.85 16857.27,11724.72 16847.67,11774.04 "/>
      <polygon id="_73" class="fil74" points="5027.3,9440.29 5036.89,9390.97 16863.66,11691.84 16854.07,11741.16 "/>
      <polygon id="_74" class="fil75" points="5033.69,9407.41 5043.29,9358.09 16870.06,11658.96 16860.47,11708.28 "/>
      <polygon id="_75" class="fil76" points="5040.09,9374.53 5049.69,9325.21 16876.46,11626.08 16866.86,11675.4 "/>
      <polygon id="_76" class="fil77" points="5046.49,9341.65 5056.08,9292.34 16882.85,11593.2 16873.26,11642.52 "/>
      <polygon id="_77" class="fil78" points="5052.88,9308.77 5062.48,9259.45 16889.25,11560.32 16879.66,11609.64 "/>
      <polygon id="_78" class="fil79" points="5059.28,9275.89 5068.88,9226.57 16895.65,11527.44 16886.05,11576.76 "/>
      <polygon id="_79" class="fil80" points="5065.68,9243.02 5075.27,9193.7 16902.04,11494.57 16892.45,11543.89 "/>
      <polygon id="_80" class="fil81" points="5072.07,9210.13 5081.67,9160.81 16908.44,11461.69 16898.85,11511.01 "/>
      <polygon id="_81" class="fil82" points="5078.47,9177.26 5088.07,9127.94 16914.84,11428.81 16905.24,11478.12 "/>
      <polygon id="_82" class="fil83" points="5084.87,9144.38 5094.46,9095.06 16921.23,11395.93 16911.63,11445.25 "/>
      <polygon id="_83" class="fil84" points="5091.26,9111.5 5100.86,9062.18 16927.63,11363.05 16918.04,11412.37 "/>
      <polygon id="_84" class="fil85" points="5097.66,9078.62 5107.26,9029.3 16934.02,11330.17 16924.43,11379.49 "/>
      <polygon id="_85" class="fil86" points="5104.06,9045.74 5113.65,8996.42 16940.42,11297.29 16930.82,11346.61 "/>
      <polygon id="_86" class="fil87" points="5110.45,9012.86 5120.05,8963.54 16946.82,11264.41 16937.23,11313.73 "/>
      <polygon id="_87" class="fil88" points="5116.85,8979.98 5126.45,8930.66 16953.21,11231.53 16943.62,11280.85 "/>
      <polygon id="_88" class="fil89" points="5123.25,8947.1 5132.84,8897.78 16959.61,11198.65 16950.01,11247.97 "/>
      <polygon id="_89" class="fil90" points="5129.64,8914.23 5139.24,8864.91 16966.01,11165.78 16956.41,11215.1 "/>
      <polygon id="_90" class="fil91" points="5136.04,8881.34 5145.64,8832.02 16972.4,11132.9 16962.81,11182.22 "/>
      <polygon id="_91" class="fil92" points="5142.44,8848.47 5152.03,8799.15 16978.8,11100.02 16969.2,11149.33 "/>
      <polygon id="_92" class="fil93" points="5148.83,8815.59 5158.42,8766.27 16985.2,11067.14 16975.6,11116.46 "/>
      <polygon id="_93" class="fil94" points="5155.23,8782.7 5164.83,8733.39 16991.59,11034.26 16982,11083.58 "/>
      <polygon id="_94" class="fil95" points="5161.62,8749.83 5171.22,8700.51 16997.99,11001.38 16988.4,11050.7 "/>
      <polygon id="_95" class="fil96" points="5168.02,8716.95 5177.61,8667.63 17004.39,10968.5 16994.79,11017.82 "/>
      <polygon id="_96" class="fil97" points="5174.42,8684.07 5184.01,8634.75 17010.78,10935.62 17001.19,10984.94 "/>
      <polygon id="_97" class="fil98" points="5180.81,8651.19 5190.41,8601.87 17017.18,10902.75 17007.59,10952.06 "/>
      <polygon id="_98" class="fil99" points="5187.21,8618.31 5196.8,8568.99 17023.58,10869.86 17013.98,10919.18 "/>
      <polygon id="_99" class="fil100" points="5193.61,8585.44 5203.2,8536.12 17029.97,10836.99 17020.38,10886.3 "/>
      <polygon id="_100" class="fil101" points="5200,8552.55 5209.6,8503.23 17036.37,10804.11 17026.78,10853.43 "/>
      <polygon id="_101" class="fil102" points="5206.4,8519.68 5215.99,8470.36 17042.77,10771.23 17033.17,10820.54 "/>
      <polygon id="_102" class="fil103" points="5212.8,8486.8 5222.39,8437.48 17049.16,10738.35 17039.57,10787.67 "/>
      <polygon id="_103" class="fil104" points="5219.19,8453.92 5228.79,8404.6 17055.56,10705.47 17045.97,10754.79 "/>
      <polygon id="_104" class="fil105" points="5225.59,8421.04 5235.18,8371.72 17061.96,10672.59 17052.36,10721.91 "/>
      <polygon id="_105" class="fil106" points="5231.99,8388.16 5241.58,8338.84 17068.35,10639.71 17058.76,10689.03 "/>
      <polygon id="_106" class="fil107" points="5238.38,8355.28 5247.98,8305.96 17074.75,10606.83 17065.16,10656.15 "/>
      <polygon id="_107" class="fil108" points="5244.78,8322.4 5254.37,8273.08 17081.15,10573.96 17071.55,10623.27 "/>
      <polygon id="_108" class="fil109" points="5251.18,8289.52 5260.77,8240.2 17087.54,10541.07 17077.95,10590.39 "/>
      <polygon id="_109" class="fil110" points="5257.57,8256.65 5267.17,8207.33 17093.94,10508.2 17084.35,10557.51 "/>
      <polygon id="_110" class="fil111" points="5263.97,8223.76 5273.56,8174.44 17100.34,10475.32 17090.74,10524.64 "/>
      <polygon id="_111" class="fil112" points="5270.37,8190.88 5279.96,8141.57 17106.73,10442.44 17097.14,10491.75 "/>
      <polygon id="_112" class="fil113" points="5276.76,8158.01 5286.36,8108.69 17113.13,10409.56 17103.54,10458.88 "/>
      <polygon id="_113" class="fil114" points="5283.16,8125.13 5292.75,8075.81 17119.53,10376.68 17109.93,10426 "/>
      <polygon id="_114" class="fil115" points="5289.56,8092.25 5299.15,8042.93 17125.92,10343.8 17116.32,10393.12 "/>
      <polygon id="_115" class="fil116" points="5295.95,8059.37 5305.55,8010.05 17132.32,10310.92 17122.73,10360.24 "/>
      <polygon id="_116" class="fil117" points="5302.35,8026.49 5311.94,7977.17 17138.71,10278.04 17129.12,10327.36 "/>
      <polygon id="_117" class="fil118" points="5308.75,7993.61 5318.34,7944.29 17145.11,10245.17 17135.51,10294.48 "/>
      <polygon id="_118" class="fil119" points="5315.14,7960.73 5324.74,7911.41 17151.51,10212.28 17141.91,10261.6 "/>
      <polygon id="_119" class="fil120" points="5321.54,7927.86 5331.13,7878.54 17157.9,10179.41 17148.31,10228.72 "/>
      <polygon id="_120" class="fil121" points="5327.94,7894.97 5337.53,7845.66 17164.3,10146.53 17154.7,10195.85 "/>
      <polygon id="_121" class="fil122" points="5334.33,7862.09 5343.93,7812.78 17170.7,10113.64 17161.1,10162.96 "/>
      <polygon id="_122" class="fil123" points="5340.72,7829.22 5350.32,7779.9 17177.09,10080.77 17167.5,10130.09 "/>
      <polygon id="_123" class="fil124" points="5347.13,7796.34 5356.72,7747.02 17183.49,10047.89 17173.89,10097.21 "/>
      <polygon id="_124" class="fil125" points="5353.52,7763.46 5363.11,7714.14 17189.89,10015.01 17180.29,10064.33 "/>
      <polygon id="_125" class="fil126" points="5359.91,7730.58 5369.52,7681.26 17196.28,9982.13 17186.69,10031.45 "/>
      <polygon id="_126" class="fil127" points="5366.31,7697.7 5375.91,7648.38 17202.68,9949.25 17193.08,9998.57 "/>
      <polygon id="_127" class="fil128" points="5372.71,7664.82 5382.3,7615.5 17209.08,9916.38 17199.48,9965.69 "/>
      <polygon id="_128" class="fil129" points="5379.11,7631.94 5388.7,7582.62 17215.47,9883.49 17205.88,9932.81 "/>
      <polygon id="_129" class="fil130" points="5385.5,7599.06 5395.1,7549.75 17221.87,9850.62 17212.27,9899.93 "/>
      <polygon id="_130" class="fil131" points="5391.9,7566.18 5401.49,7516.87 17228.27,9817.74 17218.67,9867.06 "/>
      <polygon id="_131" class="fil132" points="5398.3,7533.3 5407.89,7483.99 17234.66,9784.85 17225.07,9834.17 "/>
      <polygon id="_132" class="fil133" points="5404.69,7500.43 5414.29,7451.11 17241.06,9751.98 17231.46,9801.3 "/>
      <polygon id="_133" class="fil134" points="5411.09,7467.55 5420.68,7418.23 17247.46,9719.1 17237.86,9768.42 "/>
      <polygon id="_134" class="fil135" points="5417.49,7434.67 5427.08,7385.35 17253.85,9686.22 17244.26,9735.54 "/>
      <polygon id="_135" class="fil136" points="5423.88,7401.79 5433.48,7352.47 17260.25,9653.34 17250.65,9702.66 "/>
      <polygon id="_136" class="fil137" points="5430.28,7368.91 5439.87,7319.59 17266.65,9620.46 17257.05,9669.78 "/>
      <polygon id="_137" class="fil138" points="5436.68,7336.03 5446.27,7286.71 17273.04,9587.59 17263.45,9636.9 "/>
      <polygon id="_138" class="fil139" points="5443.07,7303.15 5452.67,7253.83 17279.44,9554.7 17269.84,9604.02 "/>
      <polygon id="_139" class="fil140" points="5449.47,7270.27 5459.06,7220.96 17285.84,9521.82 17276.24,9571.14 "/>
      <polygon id="_140" class="fil141" points="5455.87,7237.39 5465.46,7188.08 17292.23,9488.95 17282.64,9538.27 "/>
      <polygon id="_141" class="fil142" points="5462.26,7204.51 5471.86,7155.19 17298.62,9456.06 17289.03,9505.38 "/>
      <polygon id="_142" class="fil143" points="5468.66,7171.64 5478.25,7122.32 17305.03,9423.19 17295.43,9472.51 "/>
      <polygon id="_143" class="fil144" points="5475.06,7138.76 5484.65,7089.44 17311.42,9390.31 17301.83,9439.63 "/>
      <polygon id="_144" class="fil145" points="5481.45,7105.88 5491.05,7056.56 17317.82,9357.43 17308.23,9406.75 "/>
      <polygon id="_145" class="fil146" points="5487.85,7073 5497.44,7023.68 17324.22,9324.55 17314.62,9373.87 "/>
      <polygon id="_146" class="fil147" points="5494.25,7040.12 5503.84,6990.8 17330.61,9291.67 17321.01,9340.99 "/>
      <polygon id="_147" class="fil148" points="5500.64,7007.24 5510.24,6957.92 17337.01,9258.8 17327.42,9308.11 "/>
      <polygon id="_148" class="fil149" points="5507.04,6974.36 5516.63,6925.04 17343.4,9225.91 17333.81,9275.23 "/>
      <polygon id="_149" class="fil150" points="5513.44,6941.48 5523.03,6892.17 17349.8,9193.03 17340.2,9242.35 "/>
      <polygon id="_150" class="fil151" points="5519.83,6908.61 5529.43,6859.29 17356.2,9160.16 17346.6,9209.48 "/>
      <polygon id="_151" class="fil152" points="5526.23,6875.72 5535.82,6826.4 17362.59,9127.27 17353,9176.59 "/>
      <polygon id="_152" class="fil153" points="5532.63,6842.85 5542.22,6793.53 17368.99,9094.4 17359.39,9143.72 "/>
      <polygon id="_153" class="fil154" points="5539.02,6809.97 5548.61,6760.65 17375.39,9061.52 17365.79,9110.84 "/>
      <polygon id="_154" class="fil27" points="5545.41,6777.09 5555.01,6727.77 17381.78,9028.64 17372.19,9077.95 "/>
      <polygon id="_155" class="fil26" points="5551.82,6744.21 5561.41,6694.89 17388.18,8995.76 17378.58,9045.08 "/>
      <polygon id="_156" class="fil25" points="5558.21,6711.33 5567.8,6662.01 17394.58,8962.88 17384.98,9012.2 "/>
      <polygon id="_157" class="fil155" points="5564.6,6678.45 5574.2,6629.13 17400.97,8930 17391.38,8979.32 "/>
      <polygon id="_158" class="fil156" points="5571,6645.57 5580.6,6596.25 17407.37,8897.12 17397.77,8946.44 "/>
      <polygon id="_159" class="fil157" points="5577.4,6612.69 5586.99,6563.37 17413.77,8864.24 17404.17,8913.56 "/>
      <polygon id="_160" class="fil158" points="5583.79,6579.82 5593.39,6530.5 17420.16,8831.37 17410.57,8880.69 "/>
      <polygon id="_161" class="fil159" points="5590.19,6546.93 5599.79,6497.61 17426.56,8798.48 17416.96,8847.8 "/>
      <polygon id="_162" class="fil19" points="5596.59,6514.06 5606.18,6464.74 17432.96,8765.61 17423.36,8814.93 "/>
      <polygon id="_163" class="fil18" points="5602.98,6481.18 5612.58,6431.86 17439.35,8732.73 17429.76,8782.05 "/>
      <polygon id="_164" class="fil17" points="5609.38,6448.3 5618.98,6398.98 17445.75,8699.85 17436.15,8749.16 "/>
      <polygon id="_165" class="fil160" points="5615.78,6415.42 5625.37,6366.1 17452.15,8666.97 17442.55,8716.29 "/>
      <polygon id="_166" class="fil161" points="5622.17,6382.54 5631.77,6333.22 17458.54,8634.09 17448.95,8683.41 "/>
      <polygon id="_167" class="fil162" points="5628.57,6349.66 5638.17,6300.34 17464.94,8601.21 17455.34,8650.53 "/>
      <polygon id="_168" class="fil163" points="5634.97,6316.78 5644.56,6267.46 17471.34,8568.33 17461.74,8617.65 "/>
      <polygon id="_169" class="fil164" points="5641.36,6283.9 5650.96,6234.58 17477.73,8535.45 17468.14,8584.77 "/>
      <polygon id="_170" class="fil165" points="5647.76,6251.03 5657.36,6201.71 17484.13,8502.58 17474.53,8551.9 "/>
      <polygon id="_171" class="fil166" points="5654.16,6218.14 5663.75,6168.82 17490.53,8469.69 17480.93,8519.01 "/>
      <polygon id="_172" class="fil167" points="5660.55,6185.27 5670.15,6135.95 17496.92,8436.82 17487.33,8486.13 "/>
      <polygon id="_173" class="fil168" points="5666.95,6152.39 5676.55,6103.07 17503.31,8403.94 17493.72,8453.26 "/>
      <polygon id="_174" class="fil8" points="5673.35,6119.51 5682.94,6070.19 17509.72,8371.06 17500.12,8420.38 "/>
      <polygon id="_175" class="fil7" points="5679.75,6086.63 5689.34,6037.31 17516.11,8338.18 17506.52,8387.5 "/>
      <polygon id="_176" class="fil6" points="5686.14,6053.75 5695.74,6004.43 17522.5,8305.3 17512.91,8354.62 "/>
      <polygon id="_177" class="fil5" points="5692.54,6020.87 5702.13,5971.55 17528.9,8272.42 17519.31,8321.74 "/>
      <polygon id="_178" class="fil4" points="5698.94,5987.99 5708.53,5938.67 17535.3,8239.54 17525.7,8288.86 "/>
      <polygon id="_179" class="fil3" points="5705.33,5955.11 5714.93,5905.79 17541.69,8206.66 17532.1,8255.98 "/>
      <polygon id="_180" class="fil2" points="5711.73,5922.24 5721.32,5872.92 17548.09,8173.79 17538.5,8223.11 "/>
      <polygon id="_181" class="fil1" points="5718.13,5889.35 5727.72,5840.03 17554.49,8140.9 17544.89,8190.22 "/>
      <polygon id="_182" class="fil169" points="5724.52,5856.48 5734.12,5807.16 17560.88,8108.03 17551.29,8157.34 "/>
      <polygon id="_183" class="fil170" points="5730.91,5823.6 5740.51,5774.28 17567.28,8075.15 17557.69,8124.47 "/>
      <polygon id="_184" class="fil171" points="5737.32,5790.71 5746.91,5741.4 17573.68,8042.27 17564.08,8091.59 "/>
      <polygon id="_185" class="fil172" points="5743.71,5757.84 5753.3,5708.52 17580.07,8009.39 17570.48,8058.71 "/>
      <polygon id="_186" class="fil173" points="5750.1,5724.96 5759.7,5675.64 17586.47,7976.51 17576.88,8025.83 "/>
      <polygon id="_187" class="fil174" points="5756.51,5692.08 5766.1,5642.76 17592.87,7943.63 17583.27,7992.95 "/>
      <polygon id="_188" class="fil175" points="5762.9,5659.2 5772.49,5609.88 17599.26,7910.75 17589.67,7960.07 "/>
      <polygon id="_189" class="fil176" points="5769.29,5626.32 5778.89,5577 17605.66,7877.87 17596.07,7927.19 "/>
      <polygon id="_190" class="fil177" points="5775.69,5593.45 5785.29,5544.13 17612.06,7845 17602.46,7894.31 "/>
      <polygon id="_191" class="fil178" points="5782.09,5560.56 5791.68,5511.24 17618.46,7812.11 17608.86,7861.43 "/>
      <polygon id="_192" class="fil179" points="5788.48,5527.68 5798.08,5478.37 17624.85,7779.24 17615.26,7828.55 "/>
      <polygon id="_193" class="fil180" points="5794.88,5494.81 5804.48,5445.49 17631.25,7746.36 17621.65,7795.68 "/>
      <polygon id="_194" class="fil181" points="5801.28,5461.92 5810.87,5412.61 17637.65,7713.48 17628.05,7762.8 "/>
      <polygon id="_195" class="fil182" points="5807.67,5429.05 5817.27,5379.73 17644.04,7680.6 17634.45,7729.92 "/>
      <polygon id="_196" class="fil183" points="5814.07,5396.17 5823.67,5346.85 17650.44,7647.72 17640.84,7697.04 "/>
      <polygon id="_197" class="fil184" points="5820.47,5363.29 5830.06,5313.97 17656.84,7614.84 17647.24,7664.16 "/>
      <polygon id="_198" class="fil185" points="5826.86,5330.41 5836.46,5281.09 17663.23,7581.96 17653.64,7631.28 "/>
      <polygon id="_199" class="fil186" points="5833.26,5297.53 5842.86,5248.21 17669.63,7549.08 17660.03,7598.4 "/>
      <polygon id="_200" class="fil187" points="5839.66,5264.66 5849.25,5215.34 17676.03,7516.21 17666.43,7565.52 "/>
      <polygon id="_201" class="fil188" points="5846.05,5231.77 5855.65,5182.45 17682.42,7483.33 17672.83,7532.64 "/>
      <polygon id="_202" class="fil189" points="5852.45,5198.89 5862.05,5149.58 17688.82,7450.45 17679.22,7499.76 "/>
      <polygon id="_203" class="fil190" points="5858.85,5166.02 5868.44,5116.7 17695.22,7417.57 17685.62,7466.89 "/>
      <polygon id="_204" class="fil191" points="5865.24,5133.13 5874.84,5083.82 17701.61,7384.69 17692.02,7434.01 "/>
      <polygon id="_205" class="fil192" points="5871.64,5100.26 5881.24,5050.94 17708,7351.81 17698.41,7401.13 "/>
      <polygon id="_206" class="fil193" points="5878.04,5067.38 5887.63,5018.06 17714.41,7318.93 17704.81,7368.25 "/>
      <polygon id="_207" class="fil194" points="5884.43,5034.5 5894.03,4985.18 17720.8,7286.05 17711.2,7335.37 "/>
      <polygon id="_208" class="fil195" points="5890.83,5001.62 5900.43,4952.3 17727.19,7253.17 17717.6,7302.49 "/>
      <polygon id="_209" class="fil196" points="5897.23,4968.74 5906.82,4919.42 17733.59,7220.29 17724,7269.61 "/>
      <polygon id="_210" class="fil197" points="5903.62,4935.86 5913.21,4886.55 17739.99,7187.42 17730.39,7236.73 "/>
      <polygon id="_211" class="fil198" points="5910.02,4902.98 5919.62,4853.66 17746.38,7154.54 17736.79,7203.85 "/>
      <polygon id="_212" class="fil199" points="5916.42,4870.1 5926.01,4820.79 17752.78,7121.65 17743.19,7170.97 "/>
      <polygon id="_213" class="fil200" points="5922.81,4837.23 5932.4,4787.91 17759.18,7088.78 17749.58,7138.1 "/>
      <polygon id="_214" class="fil201" points="5929.21,4804.34 5938.81,4755.02 17765.57,7055.9 17755.98,7105.22 "/>
      <polygon id="_215" class="fil202" points="5935.6,4771.47 5945.2,4722.15 17771.97,7023.02 17762.38,7072.34 "/>
      <polygon id="_216" class="fil203" points="5942,4738.59 5951.59,4689.27 17778.37,6990.14 17768.77,7039.46 "/>
      <polygon id="_217" class="fil204" points="5948.4,4705.71 5957.99,4656.39 17784.76,6957.26 17775.17,7006.58 "/>
      <polygon id="_218" class="fil205" points="5954.79,4672.83 5964.39,4623.51 17791.16,6924.38 17781.57,6973.7 "/>
      <polygon id="_219" class="fil206" points="5961.19,4639.95 5970.78,4590.63 17797.56,6891.5 17787.96,6940.82 "/>
      <polygon id="_220" class="fil205" points="5967.59,4607.07 5977.18,4557.76 17803.95,6858.63 17794.36,6907.94 "/>
      <polygon id="_221" class="fil204" points="5973.98,4574.19 5983.58,4524.87 17810.35,6825.75 17800.76,6875.07 "/>
      <polygon id="_222" class="fil207" points="5980.38,4541.31 5989.97,4492 17816.75,6792.86 17807.15,6842.18 "/>
      <polygon id="_223" class="fil208" points="5986.78,4508.44 5996.37,4459.12 17823.14,6759.99 17813.55,6809.31 "/>
      <polygon id="_224" class="fil202" points="5993.17,4475.55 6002.77,4426.24 17829.54,6727.11 17819.95,6776.43 "/>
      <polygon id="_225" class="fil201" points="5999.57,4442.68 6009.17,4393.36 17835.94,6694.23 17826.34,6743.55 "/>
      <polygon id="_226" class="fil209" points="6005.97,4409.8 6015.56,4360.48 17842.33,6661.35 17832.74,6710.67 "/>
      <polygon id="_227" class="fil198" points="6012.36,4376.92 6021.96,4327.6 17848.73,6628.47 17839.14,6677.79 "/>
      <polygon id="_228" class="fil197" points="6018.76,4344.04 6028.36,4294.72 17855.13,6595.59 17845.53,6644.91 "/>
      <polygon id="_229" class="fil196" points="6025.16,4311.16 6034.75,4261.84 17861.52,6562.71 17851.93,6612.03 "/>
      <polygon id="_230" class="fil195" points="6031.55,4278.28 6041.15,4228.97 17867.92,6529.83 17858.33,6579.15 "/>
      <polygon id="_231" class="fil194" points="6037.95,4245.4 6047.55,4196.08 17874.32,6496.96 17864.72,6546.28 "/>
      <polygon id="_232" class="fil193" points="6044.35,4212.52 6053.94,4163.2 17880.71,6464.07 17871.12,6513.39 "/>
      <polygon id="_233" class="fil210" points="6050.74,4179.65 6060.34,4130.33 17887.11,6431.2 17877.52,6480.52 "/>
      <polygon id="_234" class="fil191" points="6057.14,4146.76 6066.74,4097.45 17893.5,6398.32 17883.91,6447.64 "/>
      <polygon id="_235" class="fil190" points="6063.54,4113.89 6073.13,4064.57 17899.9,6365.44 17890.3,6414.76 "/>
      <polygon id="_236" class="fil189" points="6069.93,4081.01 6079.53,4031.69 17906.3,6332.56 17896.71,6381.88 "/>
      <polygon id="_237" class="fil188" points="6076.33,4048.13 6085.93,3998.81 17912.69,6299.68 17903.1,6349 "/>
      <polygon id="_238" class="fil211" points="6082.73,4015.25 6092.32,3965.93 17919.09,6266.8 17909.49,6316.12 "/>
      <polygon id="_239" class="fil212" points="6089.12,3982.37 6098.72,3933.05 17925.49,6233.92 17915.89,6283.24 "/>
      <polygon id="_240" class="fil213" points="6095.52,3949.49 6105.12,3900.18 17931.88,6201.04 17922.29,6250.36 "/>
      <polygon id="_241" class="fil214" points="6101.92,3916.61 6111.51,3867.29 17938.28,6168.17 17928.68,6217.49 "/>
      <polygon id="_242" class="fil215" points="6108.31,3883.73 6117.9,3834.41 17944.68,6135.28 17935.08,6184.6 "/>
      <polygon id="_243" class="fil216" points="6114.71,3850.86 6124.31,3801.54 17951.07,6102.41 17941.48,6151.73 "/>
      <polygon id="_244" class="fil217" points="6121.11,3817.97 6130.7,3768.66 17957.47,6069.53 17947.88,6118.85 "/>
      <polygon id="_245" class="fil180" points="6127.5,3785.1 6137.09,3735.78 17963.87,6036.65 17954.27,6085.96 "/>
      <polygon id="_246" class="fil179" points="6133.9,3752.22 6143.5,3702.9 17970.26,6003.77 17960.67,6053.09 "/>
      <polygon id="_247" class="fil178" points="6140.29,3719.34 6149.89,3670.02 17976.66,5970.89 17967.07,6020.21 "/>
      <polygon id="_248" class="fil218" points="6146.69,3686.46 6156.28,3637.14 17983.06,5938.01 17973.46,5987.33 "/>
      <polygon id="_249" class="fil175" points="6153.09,3653.58 6162.68,3604.26 17989.45,5905.13 17979.86,5954.45 "/>
      <polygon id="_250" class="fil174" points="6159.48,3620.7 6169.08,3571.38 17995.85,5872.25 17986.26,5921.57 "/>
      <polygon id="_251" class="fil219" points="6165.88,3587.82 6175.47,3538.5 18002.25,5839.38 17992.65,5888.7 "/>
      <polygon id="_252" class="fil172" points="6172.28,3554.94 6181.87,3505.62 18008.64,5806.49 17999.05,5855.81 "/>
      <polygon id="_253" class="fil171" points="6178.67,3522.07 6188.27,3472.75 18015.04,5773.62 18005.45,5822.94 "/>
      <polygon id="_254" class="fil170" points="6185.07,3489.19 6194.66,3439.87 18021.44,5740.74 18011.84,5790.06 "/>
      <polygon id="_255" class="fil169" points="6191.47,3456.31 6201.06,3406.99 18027.83,5707.86 18018.24,5757.17 "/>
      <polygon id="_256" class="fil1" points="6197.86,3423.43 6207.46,3374.11 18034.23,5674.98 18024.64,5724.3 "/>
      <polygon id="_257" class="fil2" points="6204.26,3390.55 6213.85,3341.23 18040.63,5642.1 18031.03,5691.42 "/>
      <polygon id="_258" class="fil3" points="6210.66,3357.67 6220.25,3308.35 18047.02,5609.22 18037.43,5658.54 "/>
      <polygon id="_259" class="fil4" points="6217.05,3324.79 6226.65,3275.47 18053.42,5576.34 18043.83,5625.66 "/>
      <polygon id="_260" class="fil5" points="6223.45,3291.91 6233.04,3242.59 18059.82,5543.46 18050.22,5592.78 "/>
      <polygon id="_261" class="fil6" points="6229.85,3259.03 6239.44,3209.71 18066.21,5510.59 18056.62,5559.91 "/>
      <polygon id="_262" class="fil7" points="6236.24,3226.15 6245.84,3176.83 18072.61,5477.7 18063.02,5527.02 "/>
      <polygon id="_263" class="fil8" points="6242.64,3193.28 6252.23,3143.96 18079.01,5444.83 18069.41,5494.14 "/>
      <polygon id="_264" class="fil9" points="6249.04,3160.4 6258.63,3111.08 18085.4,5411.95 18075.8,5461.27 "/>
      <polygon id="_265" class="fil10" points="6255.43,3127.51 6265.03,3078.2 18091.8,5379.07 18082.21,5428.38 "/>
      <polygon id="_266" class="fil11" points="6261.83,3094.64 6271.42,3045.32 18098.19,5346.19 18088.6,5395.51 "/>
      <polygon id="_267" class="fil12" points="6268.23,3061.76 6277.82,3012.44 18104.59,5313.31 18094.99,5362.63 "/>
      <polygon id="_268" class="fil13" points="6274.62,3028.88 6284.22,2979.56 18110.99,5280.43 18101.4,5329.75 "/>
      <polygon id="_269" class="fil14" points="6281.02,2996 6290.61,2946.68 18117.38,5247.55 18107.79,5296.87 "/>
      <polygon id="_270" class="fil15" points="6287.42,2963.12 6297.01,2913.8 18123.78,5214.67 18114.18,5263.99 "/>
      <polygon id="_271" class="fil16" points="6293.81,2930.24 6303.41,2880.92 18130.18,5181.8 18120.58,5231.12 "/>
      <polygon id="_272" class="fil17" points="6300.2,2897.36 6309.81,2848.04 18136.57,5148.91 18126.98,5198.23 "/>
      <polygon id="_273" class="fil18" points="6306.61,2864.49 6316.2,2815.17 18142.97,5116.04 18133.37,5165.35 "/>
      <polygon id="_274" class="fil19" points="6313,2831.61 6322.59,2782.29 18149.37,5083.16 18139.77,5132.48 "/>
      <polygon id="_275" class="fil20" points="6319.4,2798.72 6329,2749.41 18155.76,5050.28 18146.17,5099.59 "/>
      <polygon id="_276" class="fil21" points="6325.8,2765.85 6335.39,2716.53 18162.16,5017.4 18152.56,5066.72 "/>
      <polygon id="_277" class="fil22" points="6332.19,2732.97 6341.78,2683.65 18168.56,4984.52 18158.96,5033.84 "/>
      <polygon id="_278" class="fil23" points="6338.59,2700.09 6348.18,2650.77 18174.95,4951.64 18165.36,5000.96 "/>
      <polygon id="_279" class="fil24" points="6344.98,2667.21 6354.58,2617.89 18181.35,4918.76 18171.75,4968.08 "/>
      <polygon id="_280" class="fil25" points="6351.38,2634.33 6360.97,2585.01 18187.75,4885.88 18178.15,4935.2 "/>
      <polygon id="_281" class="fil26" points="6357.78,2601.45 6367.37,2552.14 18194.14,4853.01 18184.55,4902.32 "/>
      <polygon id="_282" class="fil27" points="6364.17,2568.57 6373.77,2519.25 18200.54,4820.12 18190.94,4869.44 "/>
      <polygon id="_283" class="fil28" points="6370.57,2535.69 6380.16,2486.38 18206.94,4787.25 18197.34,4836.56 "/>
      <polygon id="_284" class="fil29" points="6376.97,2502.82 6386.56,2453.5 18213.33,4754.37 18203.74,4803.69 "/>
      <polygon id="_285" class="fil30" points="6383.36,2469.93 6392.96,2420.62 18219.73,4721.48 18210.13,4770.8 "/>
      <polygon id="_286" class="fil31" points="6389.76,2437.06 6399.35,2387.74 18226.13,4688.61 18216.53,4737.93 "/>
      <polygon id="_287" class="fil32" points="6396.16,2404.18 6405.75,2354.86 18232.52,4655.73 18222.93,4705.05 "/>
      <polygon id="_288" class="fil33" points="6402.55,2371.3 6412.15,2321.98 18238.92,4622.85 18229.32,4672.17 "/>
      <polygon id="_289" class="fil34" points="6408.95,2338.42 6418.54,2289.1 18245.32,4589.97 18235.72,4639.29 "/>
      <polygon id="_290" class="fil35" points="6415.35,2305.54 6424.94,2256.22 18251.71,4557.09 18242.12,4606.41 "/>
      <polygon id="_291" class="fil36" points="6421.74,2272.66 6431.34,2223.35 18258.11,4524.22 18248.52,4573.53 "/>
      <polygon id="_292" class="fil37" points="6428.14,2239.78 6437.73,2190.46 18264.51,4491.33 18254.91,4540.65 "/>
      <polygon id="_293" class="fil38" points="6434.54,2206.9 6444.13,2157.59 18270.9,4458.45 18261.31,4507.77 "/>
      <polygon id="_294" class="fil39" points="6440.93,2174.03 6450.53,2124.71 18277.3,4425.58 18267.71,4474.9 "/>
      <polygon id="_295" class="fil40" points="6447.33,2141.14 6456.92,2091.83 18283.7,4392.69 18274.1,4442.01 "/>
      <polygon id="_296" class="fil41" points="6453.73,2108.27 6463.32,2058.95 18290.09,4359.82 18280.49,4409.14 "/>
      <polygon id="_297" class="fil42" points="6460.12,2075.39 6469.72,2026.07 18296.49,4326.94 18286.9,4376.26 "/>
      <polygon id="_298" class="fil43" points="6466.52,2042.51 6476.11,1993.19 18302.88,4294.06 18293.29,4343.38 "/>
      <polygon id="_299" class="fil44" points="6472.92,2009.63 6482.51,1960.31 18309.28,4261.18 18299.68,4310.5 "/>
      <polygon id="_300" class="fil45" points="6479.31,1976.75 6488.91,1927.43 18315.68,4228.3 18306.09,4277.62 "/>
      <polygon id="_301" class="fil46" points="6485.71,1943.87 6495.3,1894.56 18322.07,4195.43 18312.48,4244.74 "/>
      <polygon id="_302" class="fil47" points="6492.11,1910.99 6501.7,1861.67 18328.47,4162.54 18318.87,4211.86 "/>
      <polygon id="_303" class="fil48" points="6498.5,1878.11 6508.1,1828.8 18334.87,4129.66 18325.27,4178.98 "/>
      <polygon id="_304" class="fil49" points="6504.89,1845.24 6514.49,1795.92 18341.26,4096.79 18331.67,4146.11 "/>
      <polygon id="_305" class="fil50" points="6511.3,1812.35 6520.89,1763.03 18347.66,4063.91 18338.06,4113.22 "/>
      <polygon id="_306" class="fil51" points="6517.69,1779.48 6527.28,1730.16 18354.06,4031.03 18344.46,4080.35 "/>
      <polygon id="_307" class="fil52" points="6524.08,1746.6 6533.68,1697.28 18360.45,3998.15 18350.86,4047.47 "/>
      <polygon id="_308" class="fil53" points="6530.48,1713.72 6540.08,1664.4 18366.85,3965.27 18357.25,4014.59 "/>
      <polygon id="_309" class="fil54" points="6536.88,1680.84 6546.47,1631.52 18373.25,3932.39 18363.65,3981.71 "/>
      <polygon id="_310" class="fil55" points="6543.27,1647.96 6552.87,1598.64 18379.64,3899.51 18370.05,3948.83 "/>
      <polygon id="_311" class="fil56" points="6549.67,1615.08 6559.27,1565.77 18386.04,3866.63 18376.44,3915.95 "/>
      <polygon id="_312" class="fil57" points="6556.07,1582.2 6565.66,1532.88 18392.44,3833.75 18382.84,3883.07 "/>
      <polygon id="_313" class="fil58" points="6562.46,1549.32 6572.06,1500.01 18398.83,3800.87 18389.24,3850.19 "/>
      <polygon id="_314" class="fil59" points="6568.86,1516.45 6568.48,1518.41 18395.25,3819.28 18395.63,3817.32 "/>
     </g>
     <g style="clip-path:url(#id6)">
     </g>
     <path class="fil220" d="M11400.3 5805.83c-166.65,-335.01 -333.11,-669.74 -455.73,-999.17 -122.63,-329.43 -201.56,-653.85 -193.37,-971.27 8.19,-317.43 -42.47,-627.6 52.51,-937.55l-510.87 -600.89c-10.54,-12.4 -747.71,725.36 -1047.54,778.65 -535.23,95.12 -1093.94,244.11 -1661.07,465.72 -567.81,221.86 -1144.48,516.69 -1722.68,880.65 -579.32,364.66 -1160.57,799 -1794.62,1436.44 -636.17,639.56 -1326.82,1484.95 -1802.27,2259.82 -477.37,777.98 -737.44,1484.26 -932.25,2185.47 -195.5,703.73 -325.26,1402.3 -378.99,1906.7 -53.88,505.7 -31.23,815.21 59.48,1255.51 90.92,441.29 250.33,1014.55 610.42,1604.73 361.16,591.93 924.24,1200.99 1590.35,1594.58 667.39,394.34 1436.74,571.53 1878.71,660.15 442.15,88.65 556.28,88.58 1471.1,103.58 914.83,14.99 2630.4,45.06 4346.01,75.12 80.29,-391.14 160.42,-781.52 180.27,-1137.91 19.81,-355.76 -20.42,-677.8 -104.17,-933.26 -83.64,-255.14 -210.74,-444.05 -394.81,-602.02 -183.94,-157.86 -424.81,-284.88 -619.25,-348.33 -194.38,-63.42 -342.46,-63.34 -901.2,-80.58 -558.72,-17.23 -1527.99,-51.78 -2036.55,-69.04 -508.53,-17.25 -556.44,-17.23 -779.85,-139.68 -223.27,-122.38 -621.59,-366.92 -923.41,-737.7 -301.27,-370.09 -506.03,-865.45 -632.67,-1379.1 -126.31,-512.31 -174.89,-1042.72 -55.81,-1610.41 118.74,-566.05 404.12,-1168.94 702.5,-1650.77 297.64,-480.64 608.57,-841.42 903.91,-1140.16 294.88,-298.27 574.4,-534.88 923.43,-769.1 348.6,-233.93 766.54,-465.49 1176.39,-637.94 409.48,-172.3 811.13,-285.7 1154.25,-354.98 342.99,-69.27 627.66,-94.47 844.52,-107.09 216.86,-12.62 511.76,-12.64 651.71,-10.57 139.95,2.06 270.74,6.23 401.54,10.4z"/>
     <path class="fil221" d="M14619.61 11557.72c173.04,346.62 346.37,693.86 475.68,1037.36 129.54,344.1 214.89,684.45 210.89,1018.87 -4.01,334.98 -97.68,663.99 -191.52,993.56 527.21,-44.26 1054.26,-88.49 1603.77,-189.85 549.21,-101.3 1120.51,-259.59 1697.33,-494.44 576.11,-234.56 1157.27,-545.32 1735.44,-927.54 577.03,-381.48 1150.65,-833.84 1765.49,-1493.95 612.76,-657.86 1265.15,-1520.66 1700.09,-2304.83 433.18,-780.99 651,-1484.62 802.84,-2178.17 151.3,-691.09 237.1,-1372.25 259.45,-1861.1 22.29,-487.62 -18.5,-784.86 -133.41,-1206.15 -114.66,-420.38 -302.96,-963.75 -685.43,-1520.02 -381.38,-554.7 -955.78,-1122.18 -1615.52,-1487.27 -658.51,-364.43 -1403.44,-527.98 -1830.33,-609.72 -426.71,-81.7 -536,-81.7 -1412.49,-95.99 -876.47,-14.3 -2520.13,-42.88 -4163.74,-71.46 -72.89,359.65 -145.9,719.99 -161.47,1050.21 -15.59,330.79 26.46,631.26 110.08,870.31 83.72,239.35 209.04,416.98 389.51,565.82 180.61,148.94 416.4,269 606.34,329.06 189.99,60.06 333.98,60.04 877.59,76.57 543.64,16.52 1487,49.58 1982,66.11 495.04,16.53 541.62,16.52 762.97,132.62 221.49,116.18 618.2,348.73 926.55,702.28 308.91,354.19 529.53,830.26 675.22,1326.38 146.06,497.38 216.84,1015.02 123.46,1572.12 -93.64,558.69 -352.43,1157.31 -630.68,1638.41 -278.94,482.3 -577.11,845.91 -862.94,1148.02 -286.27,302.59 -560,543.3 -904.66,782.18 -345.09,239.18 -761.29,476.54 -1171.82,653.7 -410.91,177.33 -815.88,294.26 -1162.78,365.79 -347.03,71.56 -635.76,97.66 -855.9,110.74 -220.16,13.08 -371.66,13.15 -513.9,11.04 -142.23,-2.1 -275.17,-6.38 -408.13,-10.65z"/>
     <path class="fil222" d="M7548.75 11327.05l-2887.21 -6.71 10083.73 -7613.71 3046.63 -4.73 -3051.66 7634.7 -3005.56 -1.79 667.7 -1295.02 -3270.15 -17.62 -1583.48 1304.88zm5637.94 -2906.5l-2010.48 -27.04 3352.8 -2717.14 -1342.33 2744.18z"/>
     <path class="fil223" d="M10747.97 5190.77c-166.65,-335.01 -333,-669.46 -455.73,-999.17 -122.53,-329.15 -201.57,-653.58 -193.37,-971.27 8.19,-317.17 103.32,-627.6 198.3,-937.55 -511.67,41.34 -1023.46,82.68 -1558.42,177.77 -535.23,95.13 -1093.94,244.11 -1661.07,465.72 -567.81,221.86 -1144.48,516.69 -1722.67,880.65 -579.32,364.66 -1160.57,799 -1794.62,1436.44 -636.17,639.56 -1326.82,1484.95 -1802.27,2259.82 -477.37,777.98 -737.44,1484.26 -932.25,2185.47 -195.51,703.73 -325.26,1402.3 -379,1906.7 -53.87,505.7 -31.23,815.21 59.49,1255.51 90.91,441.29 250.32,1014.55 610.42,1604.73 361.16,591.93 924.24,1200.99 1590.35,1594.58 667.39,394.34 1436.74,571.53 1878.7,660.15 442.15,88.65 556.28,88.58 1471.11,103.58 914.82,14.99 2630.39,45.06 4346,75.12 80.3,-391.14 160.43,-781.52 180.27,-1137.91 19.82,-355.76 -20.42,-677.8 -104.17,-933.26 -83.64,-255.14 -210.74,-444.05 -394.82,-602.02 -183.93,-157.86 -424.81,-284.88 -619.25,-348.33 -194.38,-63.42 -342.46,-63.34 -901.2,-80.58 -558.71,-17.23 -1527.99,-51.78 -2036.54,-69.04 -508.53,-17.25 -556.44,-17.23 -779.85,-139.68 -223.28,-122.38 -621.59,-366.92 -923.42,-737.7 -301.26,-370.09 -506.02,-865.45 -632.66,-1379.1 -126.32,-512.31 -174.89,-1042.72 -55.81,-1610.41 118.73,-566.05 404.12,-1168.94 702.49,-1650.77 297.64,-480.64 608.57,-841.42 903.91,-1140.16 294.88,-298.27 574.4,-534.88 923.43,-769.1 348.6,-233.93 766.54,-465.49 1176.39,-637.94 409.48,-172.3 811.13,-285.7 1154.25,-354.98 342.99,-69.27 627.64,-94.47 844.52,-107.09 216.86,-12.62 365.96,-12.64 505.92,-10.57 139.95,2.07 270.74,6.23 401.54,10.4z"/>
    </g>
   </g>
  </g>
  <polygon class="fil224" points="-0,0 25984.94,0 25984.94,18371.17 -0,18371.17 "/>
 </g>
</svg>
