<?xml version="1.0" encoding="UTF-8"?>
<!DOCTYPE svg PUBLIC "-//W3C//DTD SVG 1.1//EN" "http://www.w3.org/Graphics/SVG/1.1/DTD/svg11.dtd">
<!-- Creator: CorelDRAW -->
<svg xmlns="http://www.w3.org/2000/svg" xml:space="preserve" width="184.607mm" height="130.112mm" version="1.1" style="shape-rendering:geometricPrecision; text-rendering:geometricPrecision; image-rendering:optimizeQuality; fill-rule:evenodd; clip-rule:evenodd"
viewBox="0 0 12958.67 9133.32"
 xmlns:xlink="http://www.w3.org/1999/xlink"
 xmlns:xodm="http://www.corel.com/coreldraw/odm/2003">
 <defs>
  <style type="text/css">
   <![CDATA[
    .fil82 {fill:#D1D2D4}
    .fil81 {fill:#D0D2D3}
    .fil80 {fill:#CFD0D2}
    .fil79 {fill:#CECFD1}
    .fil78 {fill:#CCCECF}
    .fil77 {fill:#CBCDCF}
    .fil76 {fill:#CACCCE}
    .fil75 {fill:#C9CBCC}
    .fil74 {fill:#C8CACC}
    .fil73 {fill:#C6C8CA}
    .fil72 {fill:#C6C7C9}
    .fil71 {fill:#C4C6C8}
    .fil70 {fill:#C3C5C7}
    .fil69 {fill:#C2C4C6}
    .fil68 {fill:#C1C3C5}
    .fil67 {fill:#C0C2C4}
    .fil66 {fill:#BEC0C2}
    .fil65 {fill:#BEBFC1}
    .fil64 {fill:#BCBEC0}
    .fil63 {fill:#BBBDBF}
    .fil62 {fill:#BABBBE}
    .fil61 {fill:#B9BBBD}
    .fil60 {fill:#B8BABC}
    .fil59 {fill:#B6B8BB}
    .fil58 {fill:#B6B8BA}
    .fil57 {fill:#B4B6B8}
    .fil56 {fill:#B3B5B7}
    .fil55 {fill:#B2B4B6}
    .fil54 {fill:#B1B3B5}
    .fil53 {fill:#B0B2B4}
    .fil52 {fill:#AFB1B3}
    .fil51 {fill:#AEB0B2}
    .fil50 {fill:#ACAEB1}
    .fil49 {fill:#ABADB0}
    .fil48 {fill:#AAACAE}
    .fil47 {fill:#A9ABAE}
    .fil46 {fill:#A8AAAC}
    .fil45 {fill:#A7A9AB}
    .fil44 {fill:#A6A8AB}
    .fil43 {fill:#A5A7A9}
    .fil42 {fill:#A4A6A8}
    .fil41 {fill:#A2A4A7}
    .fil40 {fill:#A2A4A6}
    .fil39 {fill:#A0A2A5}
    .fil38 {fill:#9FA1A4}
    .fil37 {fill:#9FA1A3}
    .fil36 {fill:#9D9FA2}
    .fil35 {fill:#9C9EA1}
    .fil34 {fill:#9B9D9F}
    .fil33 {fill:#9A9C9F}
    .fil32 {fill:#999B9D}
    .fil31 {fill:#989A9C}
    .fil30 {fill:#97999B}
    .fil29 {fill:#96989A}
    .fil222 {fill:#373435}
    .fil83 {fill:#D0D2D3}
    .fil84 {fill:#D0D1D2}
    .fil85 {fill:#CFD0D1}
    .fil86 {fill:#CDCFD0}
    .fil87 {fill:#CDCECF}
    .fil88 {fill:#CCCDCE}
    .fil89 {fill:#CCCCCD}
    .fil90 {fill:#CBCBCD}
    .fil91 {fill:#CACBCC}
    .fil92 {fill:#C9CACB}
    .fil93 {fill:#C8C9CA}
    .fil94 {fill:#C8C8C9}
    .fil95 {fill:#C7C7C8}
    .fil96 {fill:#C6C6C8}
    .fil97 {fill:#C6C6C7}
    .fil98 {fill:#C4C4C5}
    .fil99 {fill:#C4C4C5}
    .fil100 {fill:#C3C4C5}
    .fil101 {fill:#C2C2C3}
    .fil102 {fill:#C2C2C2}
    .fil103 {fill:#C1C1C2}
    .fil104 {fill:#BFBFC0}
    .fil105 {fill:#BFBFBF}
    .fil106 {fill:#BEBEBF}
    .fil107 {fill:#BDBDBE}
    .fil108 {fill:#BCBCBD}
    .fil206 {fill:#D2D3D4}
    .fil109 {fill:#BCBCBD}
    .fil205 {fill:#D1D2D3}
    .fil110 {fill:#BBBBBC}
    .fil204 {fill:#D1D1D2}
    .fil207 {fill:#D0D0D1}
    .fil111 {fill:#BABABB}
    .fil203 {fill:#CFD0D1}
    .fil208 {fill:#CFCFD0}
    .fil112 {fill:#BABABA}
    .fil202 {fill:#CECFD0}
    .fil201 {fill:#CDCECF}
    .fil113 {fill:#B8B8B9}
    .fil200 {fill:#CCCDCE}
    .fil209 {fill:#CBCDCE}
    .fil199 {fill:#CBCCCD}
    .fil114 {fill:#B8B7B8}
    .fil198 {fill:#CACCCD}
    .fil115 {fill:#B8B7B8}
    .fil197 {fill:#CACBCC}
    .fil196 {fill:#C9CACB}
    .fil116 {fill:#B6B6B7}
    .fil195 {fill:#C7C8C9}
    .fil117 {fill:#B6B6B6}
    .fil194 {fill:#C6C7C8}
    .fil193 {fill:#C5C6C7}
    .fil118 {fill:#B5B4B6}
    .fil192 {fill:#C4C5C6}
    .fil210 {fill:#C4C5C6}
    .fil119 {fill:#B4B4B5}
    .fil191 {fill:#C3C4C5}
    .fil120 {fill:#B3B3B4}
    .fil190 {fill:#C2C3C4}
    .fil189 {fill:#C1C2C3}
    .fil121 {fill:#B2B2B3}
    .fil188 {fill:#C0C1C2}
    .fil187 {fill:#BFC0C2}
    .fil211 {fill:#BFC0C1}
    .fil122 {fill:#B1B2B3}
    .fil186 {fill:#BEC0C1}
    .fil212 {fill:#BFBFC0}
    .fil123 {fill:#B1B1B2}
    .fil185 {fill:#BEBFC0}
    .fil213 {fill:#BEBEBF}
    .fil184 {fill:#BDBEBF}
    .fil124 {fill:#B0B0B1}
    .fil214 {fill:#BCBDBF}
    .fil183 {fill:#BCBDBE}
    .fil125 {fill:#AFAFB1}
    .fil215 {fill:#BBBDBE}
    .fil182 {fill:#BBBCBD}
    .fil216 {fill:#BABCBD}
    .fil181 {fill:#BABBBC}
    .fil126 {fill:#AEAEB0}
    .fil217 {fill:#B9BBBC}
    .fil180 {fill:#B9BABB}
    .fil127 {fill:#ADAEAF}
    .fil179 {fill:#B8B9BA}
    .fil128 {fill:#ADADAE}
    .fil178 {fill:#B7B8BA}
    .fil177 {fill:#B6B8BA}
    .fil218 {fill:#B6B7B9}
    .fil129 {fill:#ABACAD}
    .fil176 {fill:#B5B7B9}
    .fil130 {fill:#ABABAC}
    .fil175 {fill:#B5B6B8}
    .fil174 {fill:#B4B5B7}
    .fil131 {fill:#AAABAB}
    .fil219 {fill:#B3B4B6}
    .fil173 {fill:#B2B3B5}
    .fil172 {fill:#B1B2B4}
    .fil132 {fill:#A8A9AA}
    .fil171 {fill:#B1B1B3}
    .fil133 {fill:#A8A8AA}
    .fil170 {fill:#B0B0B2}
    .fil169 {fill:#AFAFB1}
    .fil134 {fill:#A7A8A9}
    .fil135 {fill:#A7A6A7}
    .fil1 {fill:#ADAEB0}
    .fil2 {fill:#ADAEAF}
    .fil136 {fill:#A5A6A7}
    .fil3 {fill:#ACADAF}
    .fil4 {fill:#ABACAE}
    .fil137 {fill:#A4A5A7}
    .fil5 {fill:#AAACAD}
    .fil138 {fill:#A4A4A5}
    .fil6 {fill:#A9ABAD}
    .fil7 {fill:#A9AAAC}
    .fil139 {fill:#A3A3A5}
    .fil8 {fill:#A8A9AB}
    .fil168 {fill:#A7A8AA}
    .fil140 {fill:#A2A3A4}
    .fil9 {fill:#A6A8AA}
    .fil167 {fill:#A6A7A9}
    .fil141 {fill:#A1A2A4}
    .fil10 {fill:#A6A7A9}
    .fil166 {fill:#A6A7A8}
    .fil11 {fill:#A5A6A8}
    .fil165 {fill:#A5A6A7}
    .fil142 {fill:#A0A1A3}
    .fil12 {fill:#A4A6A7}
    .fil143 {fill:#A0A1A2}
    .fil164 {fill:#A3A5A7}
    .fil13 {fill:#A3A5A6}
    .fil163 {fill:#A3A5A6}
    .fil14 {fill:#A3A4A6}
    .fil144 {fill:#9EA0A1}
    .fil162 {fill:#A2A4A6}
    .fil15 {fill:#A2A3A5}
    .fil161 {fill:#A1A3A5}
    .fil145 {fill:#9D9FA0}
    .fil16 {fill:#A1A2A4}
    .fil160 {fill:#A0A2A4}
    .fil146 {fill:#9D9EA0}
    .fil17 {fill:#A0A1A3}
    .fil18 {fill:#9EA0A1}
    .fil147 {fill:#9B9D9F}
    .fil19 {fill:#9D9FA0}
    .fil148 {fill:#9B9D9E}
    .fil20 {fill:#9D9FA0}
    .fil159 {fill:#9D9EA0}
    .fil21 {fill:#9C9EA0}
    .fil158 {fill:#9C9D9F}
    .fil149 {fill:#9A9C9D}
    .fil22 {fill:#9B9D9F}
    .fil157 {fill:#9B9D9E}
    .fil23 {fill:#9B9C9E}
    .fil150 {fill:#999B9C}
    .fil156 {fill:#9A9C9E}
    .fil24 {fill:#9A9C9D}
    .fil151 {fill:#999B9C}
    .fil155 {fill:#999B9D}
    .fil25 {fill:#989B9C}
    .fil152 {fill:#989A9B}
    .fil26 {fill:#989A9C}
    .fil153 {fill:#97999A}
    .fil27 {fill:#97999B}
    .fil154 {fill:#96989A}
    .fil28 {fill:#96989A}
    .fil0 {fill:url(#id3)}
    .fil223 {fill:url(#id4)}
    .fil221 {fill:url(#id5)}
    .fil220 {fill:url(#id6)}
   ]]>
  </style>
    <clipPath id="id0">
     <path d="M181.53 87.11l12777.15 0 0 9046.21 -12777.15 0 0 -9046.21z"/>
    </clipPath>
    <clipPath id="id1">
     <path d="M-0 87.11l12777.15 0 0 9046.21 -12777.15 0 0 -9046.21z"/>
    </clipPath>
     <clipPath id="id2">
      <path d="M3808.08 5949.29l-1293.57 -44.9 -254.14 -308.59 5313.31 -3511.34 1274.41 -310.96 254.14 308.59 -1531.07 3830.45 -1507.94 -0.89 -254.13 -308.59 226.42 -328.75 -1369.11 -11.03 -858.31 686.01zm2983.64 -1499.77l-1008.69 -13.57 1682.15 -1363.23 -673.47 1376.8z"/>
     </clipPath>
  <linearGradient id="id3" gradientUnits="userSpaceOnUse" x1="7548.39" y1="5213.92" x2="12514.97" y2="2648.29">
   <stop offset="0" style="stop-opacity:1; stop-color:#F8B330"/>
   <stop offset="0.2" style="stop-opacity:1; stop-color:#FFE3A5"/>
   <stop offset="0.458824" style="stop-opacity:1; stop-color:#F7B330"/>
   <stop offset="0.741176" style="stop-opacity:1; stop-color:#FFE3A4"/>
   <stop offset="1" style="stop-opacity:1; stop-color:#F7B330"/>
  </linearGradient>
  <linearGradient id="id4" gradientUnits="userSpaceOnUse" x1="131.35" y1="4725.6" x2="5314.03" y2="4725.6">
   <stop offset="0" style="stop-opacity:1; stop-color:#00AFEF"/>
   <stop offset="1" style="stop-opacity:1; stop-color:#C1EBFB"/>
  </linearGradient>
  <linearGradient id="id5" gradientUnits="userSpaceOnUse" x1="12307.37" y1="3978.87" x2="7255.57" y2="3266.17">
   <stop offset="0" style="stop-opacity:1; stop-color:#FFF212"/>
   <stop offset="1" style="stop-opacity:1; stop-color:#FFFAB0"/>
  </linearGradient>
  <linearGradient id="id6" gradientUnits="userSpaceOnUse" x1="493.48" y1="6621.68" x2="5533.32" y2="3145.15">
   <stop offset="0" style="stop-opacity:1; stop-color:#2F456B"/>
   <stop offset="0.168627" style="stop-opacity:1; stop-color:#99DAF4"/>
   <stop offset="0.478431" style="stop-opacity:1; stop-color:#30466B"/>
   <stop offset="0.741176" style="stop-opacity:1; stop-color:#99DAF5"/>
   <stop offset="1" style="stop-opacity:1; stop-color:#30466B"/>
  </linearGradient>
 </defs>
 <g id="Camada_x0020_1">
  <metadata id="CorelCorpID_0Corel-Layer"/>
  <g id="_2827010105520">
   <g style="clip-path:url(#id0)">
    <image x="181.53" y="87.11" width="12777.15" height="9046.21" xlink:href="adiant sloga_Images\adiant sloga_ImgID1.png"/>
   </g>
   <g style="clip-path:url(#id1)">
    <image x="-0" y="87.11" width="12777.15" height="9046.21" xlink:href="adiant sloga_Images\adiant sloga_ImgID2.png"/>
   </g>
   <path class="fil0" d="M7510.64 6023.49c86.82,173.91 173.78,348.12 238.66,520.46 64.99,172.65 107.81,343.41 105.81,511.19 -0.63,52.97 -383.85,149.06 -350.22,189.89l254.13 308.59c264.51,-22.2 529.02,-44.41 804.64,-95.25 275.62,-50.84 562.18,-130.24 851.57,-248.07 289.05,-117.68 580.63,-273.6 870.7,-465.36 289.5,-191.4 577.3,-418.36 885.77,-749.54 307.43,-330.06 634.75,-762.94 852.96,-1156.37 217.34,-391.84 326.62,-744.86 402.81,-1092.82 75.91,-346.73 118.95,-688.48 130.17,-933.75 11.18,-244.65 -9.29,-393.78 -66.93,-605.14 -57.53,-210.91 -152,-483.52 -343.9,-762.62 -191.34,-278.3 -479.53,-563.01 -810.53,-746.18 -330.38,-182.84 -704.13,-264.9 -918.3,-305.91 -214.09,-40.99 -268.92,-40.99 -708.67,-48.16 -439.74,-7.17 -1264.39,-21.51 -2089.02,-35.85 -36.57,180.45 -73.2,361.24 -81.01,526.91 -7.82,165.96 13.28,316.71 55.23,436.64 42.01,120.09 104.88,209.21 195.43,283.89 90.62,74.73 208.92,134.97 304.21,165.09 95.33,30.14 167.56,30.13 440.3,38.41 272.75,8.29 746.05,24.88 994.4,33.17 248.37,8.29 271.74,8.29 382.79,66.54 111.13,58.28 310.17,174.96 464.87,352.35 154.99,177.7 265.68,416.55 338.77,665.46 73.28,249.54 108.79,509.25 61.94,788.75 -46.98,280.31 -176.82,580.65 -316.42,822.01 -139.95,241.98 -289.54,424.4 -432.95,575.99 -143.63,151.81 -280.96,272.58 -453.88,392.43 -173.14,120 -381.95,239.09 -587.92,327.97 -206.17,88.97 -409.35,147.64 -583.39,183.53 -174.11,35.9 -318.97,49 -429.42,55.56 -110.45,6.56 -186.47,6.6 -257.83,5.54 -71.36,-1.05 -138.06,-3.2 -204.77,-5.34z"/>
   <g>
    <g style="clip-path:url(#id2)">
     <polygon class="fil1" points="2211.79,5845.5 2214.42,5832.01 8148.11,6986.39 8145.49,6999.88 "/>
     <polygon id="_1" class="fil2" points="2212.81,5840.26 2217.63,5815.51 8151.32,6969.9 8146.51,6994.64 "/>
     <polygon id="_2" class="fil3" points="2216.02,5823.76 2220.84,5799.01 8154.53,6953.4 8149.71,6978.14 "/>
     <polygon id="_3" class="fil4" points="2219.23,5807.26 2224.04,5782.52 8157.74,6936.9 8152.92,6961.65 "/>
     <polygon id="_4" class="fil5" points="2222.44,5790.77 2227.25,5766.02 8160.94,6920.41 8156.13,6945.15 "/>
     <polygon id="_5" class="fil6" points="2225.65,5774.27 2230.47,5749.53 8164.15,6903.91 8159.34,6928.66 "/>
     <polygon id="_6" class="fil7" points="2228.86,5757.77 2233.67,5733.03 8167.37,6887.42 8162.55,6912.16 "/>
     <polygon id="_7" class="fil8" points="2232.07,5741.28 2236.88,5716.53 8170.58,6870.92 8165.76,6895.66 "/>
     <polygon id="_8" class="fil9" points="2235.28,5724.78 2240.09,5700.04 8173.78,6854.42 8168.97,6879.17 "/>
     <polygon id="_9" class="fil10" points="2238.48,5708.29 2243.3,5683.54 8176.99,6837.93 8172.18,6862.67 "/>
     <polygon id="_10" class="fil11" points="2241.7,5691.79 2246.51,5667.05 8180.2,6821.43 8175.39,6846.18 "/>
     <polygon id="_11" class="fil12" points="2244.91,5675.29 2249.72,5650.55 8183.41,6804.94 8178.6,6829.68 "/>
     <polygon id="_12" class="fil13" points="2248.11,5658.8 2252.93,5634.05 8186.62,6788.44 8181.81,6813.18 "/>
     <polygon id="_13" class="fil14" points="2251.32,5642.3 2256.14,5617.56 8189.83,6771.95 8185.01,6796.69 "/>
     <polygon id="_14" class="fil15" points="2254.53,5625.81 2259.35,5601.06 8193.04,6755.45 8188.22,6780.19 "/>
     <polygon id="_15" class="fil16" points="2257.75,5609.31 2262.55,5584.57 8196.25,6738.96 8191.43,6763.7 "/>
     <polygon id="_16" class="fil17" points="2260.95,5592.81 2265.77,5568.07 8199.45,6722.46 8194.65,6747.21 "/>
     <polygon id="_17" class="fil18" points="2264.16,5576.32 2268.98,5551.57 8202.67,6705.97 8197.85,6730.71 "/>
     <polygon id="_18" class="fil19" points="2267.37,5559.82 2272.18,5535.09 8205.88,6689.47 8201.06,6714.21 "/>
     <polygon id="_19" class="fil20" points="2270.58,5543.33 2275.39,5518.59 8209.09,6672.97 8204.27,6697.72 "/>
     <polygon id="_20" class="fil21" points="2273.79,5526.84 2278.6,5502.09 8212.29,6656.48 8207.48,6681.22 "/>
     <polygon id="_21" class="fil22" points="2277,5510.34 2281.81,5485.6 8215.5,6639.98 8210.69,6664.73 "/>
     <polygon id="_22" class="fil23" points="2280.21,5493.85 2285.02,5469.1 8218.72,6623.49 8213.9,6648.23 "/>
     <polygon id="_23" class="fil24" points="2283.42,5477.35 2288.23,5452.61 8221.92,6606.99 8217.11,6631.73 "/>
     <polygon id="_24" class="fil25" points="2286.62,5460.85 2291.44,5436.11 8225.13,6590.49 8220.32,6615.24 "/>
     <polygon id="_25" class="fil26" points="2289.83,5444.36 2294.65,5419.61 8228.34,6574 8223.52,6598.74 "/>
     <polygon id="_26" class="fil27" points="2293.05,5427.86 2297.86,5403.12 8231.55,6557.5 8226.74,6582.25 "/>
     <polygon id="_27" class="fil28" points="2296.25,5411.37 2301.07,5386.62 8234.76,6541.01 8229.95,6565.75 "/>
     <polygon id="_28" class="fil29" points="2299.46,5394.87 2304.28,5370.13 8237.97,6524.51 8233.16,6549.25 "/>
     <polygon id="_29" class="fil30" points="2302.67,5378.37 2307.49,5353.63 8241.18,6508.01 8236.36,6532.76 "/>
     <polygon id="_30" class="fil31" points="2305.88,5361.88 2310.69,5337.13 8244.39,6491.52 8239.57,6516.26 "/>
     <polygon id="_31" class="fil32" points="2309.09,5345.38 2313.9,5320.64 8247.59,6475.02 8242.78,6499.77 "/>
     <polygon id="_32" class="fil33" points="2312.3,5328.89 2317.12,5304.14 8250.8,6458.53 8245.99,6483.27 "/>
     <polygon id="_33" class="fil34" points="2315.51,5312.39 2320.32,5287.64 8254.02,6442.03 8249.2,6466.77 "/>
     <polygon id="_34" class="fil35" points="2318.72,5295.89 2323.53,5271.15 8257.23,6425.53 8252.41,6450.28 "/>
     <polygon id="_35" class="fil36" points="2321.93,5279.4 2326.74,5254.65 8260.43,6409.04 8255.62,6433.78 "/>
     <polygon id="_36" class="fil37" points="2325.13,5262.9 2329.95,5238.16 8263.64,6392.54 8258.83,6417.29 "/>
     <polygon id="_37" class="fil38" points="2328.35,5246.4 2333.16,5221.66 8266.85,6376.05 8262.04,6400.79 "/>
     <polygon id="_38" class="fil39" points="2331.56,5229.91 2336.37,5205.16 8270.06,6359.55 8265.25,6384.29 "/>
     <polygon id="_39" class="fil40" points="2334.76,5213.41 2339.58,5188.67 8273.27,6343.05 8268.46,6367.8 "/>
     <polygon id="_40" class="fil41" points="2337.97,5196.92 2342.79,5172.17 8276.48,6326.56 8271.66,6351.3 "/>
     <polygon id="_41" class="fil42" points="2341.18,5180.42 2346,5155.68 8279.69,6310.06 8274.87,6334.81 "/>
     <polygon id="_42" class="fil43" points="2344.39,5163.92 2349.2,5139.18 8282.9,6293.57 8278.08,6318.31 "/>
     <polygon id="_43" class="fil44" points="2347.6,5147.43 2352.42,5122.68 8286.1,6277.07 8281.3,6301.81 "/>
     <polygon id="_44" class="fil45" points="2350.81,5130.93 2355.63,5106.19 8289.32,6260.57 8284.5,6285.32 "/>
     <polygon id="_45" class="fil46" points="2354.02,5114.44 2358.83,5089.69 8292.53,6244.08 8287.71,6268.82 "/>
     <polygon id="_46" class="fil47" points="2357.23,5097.94 2362.04,5073.2 8295.73,6227.58 8290.92,6252.33 "/>
     <polygon id="_47" class="fil48" points="2360.44,5081.44 2365.25,5056.7 8298.94,6211.09 8294.13,6235.83 "/>
     <polygon id="_48" class="fil49" points="2363.65,5064.95 2368.46,5040.2 8302.15,6194.59 8297.34,6219.33 "/>
     <polygon id="_49" class="fil50" points="2366.86,5048.45 2371.67,5023.71 8305.37,6178.09 8300.55,6202.84 "/>
     <polygon id="_50" class="fil51" points="2370.07,5031.96 2374.88,5007.21 8308.57,6161.6 8303.76,6186.34 "/>
     <polygon id="_51" class="fil52" points="2373.27,5015.46 2378.09,4990.72 8311.78,6145.1 8306.97,6169.85 "/>
     <polygon id="_52" class="fil53" points="2376.48,4998.96 2381.3,4974.22 8314.99,6128.61 8310.17,6153.35 "/>
     <polygon id="_53" class="fil54" points="2379.7,4982.47 2384.5,4957.72 8318.2,6112.11 8313.38,6136.85 "/>
     <polygon id="_54" class="fil55" points="2382.9,4965.97 2387.72,4941.23 8321.41,6095.61 8316.6,6120.36 "/>
     <polygon id="_55" class="fil56" points="2386.11,4949.48 2390.93,4924.73 8324.62,6079.12 8319.81,6103.86 "/>
     <polygon id="_56" class="fil57" points="2389.32,4932.98 2394.14,4908.24 8327.83,6062.62 8323.01,6087.37 "/>
     <polygon id="_57" class="fil58" points="2392.53,4916.48 2397.34,4891.74 8331.04,6046.13 8326.22,6070.87 "/>
     <polygon id="_58" class="fil59" points="2395.74,4899.99 2400.55,4875.24 8334.24,6029.63 8329.43,6054.37 "/>
     <polygon id="_59" class="fil60" points="2398.95,4883.49 2403.76,4858.75 8337.45,6013.13 8332.64,6037.88 "/>
     <polygon id="_60" class="fil61" points="2402.16,4867 2406.97,4842.25 8340.67,5996.64 8335.85,6021.38 "/>
     <polygon id="_61" class="fil62" points="2405.37,4850.5 2410.18,4825.76 8343.88,5980.14 8339.06,6004.89 "/>
     <polygon id="_62" class="fil63" points="2408.58,4834 2413.39,4809.26 8347.08,5963.65 8342.27,5988.39 "/>
     <polygon id="_63" class="fil64" points="2411.78,4817.51 2416.6,4792.76 8350.29,5947.15 8345.48,5971.89 "/>
     <polygon id="_64" class="fil65" points="2415,4801.01 2419.81,4776.27 8353.5,5930.65 8348.69,5955.4 "/>
     <polygon id="_65" class="fil66" points="2418.21,4784.52 2423.02,4759.77 8356.71,5914.16 8351.9,5938.9 "/>
     <polygon id="_66" class="fil67" points="2421.41,4768.02 2426.23,4743.28 8359.92,5897.66 8355.11,5922.41 "/>
     <polygon id="_67" class="fil68" points="2424.62,4751.52 2429.44,4726.78 8363.13,5881.17 8358.31,5905.91 "/>
     <polygon id="_68" class="fil69" points="2427.83,4735.03 2432.65,4710.28 8366.34,5864.67 8361.52,5889.41 "/>
     <polygon id="_69" class="fil70" points="2431.04,4718.53 2435.85,4693.79 8369.55,5848.17 8364.73,5872.92 "/>
     <polygon id="_70" class="fil71" points="2434.25,4702.04 2439.07,4677.29 8372.75,5831.68 8367.95,5856.42 "/>
     <polygon id="_71" class="fil72" points="2437.46,4685.54 2442.28,4660.8 8375.97,5815.18 8371.15,5839.93 "/>
     <polygon id="_72" class="fil73" points="2440.67,4669.04 2445.48,4644.3 8379.18,5798.69 8374.36,5823.43 "/>
     <polygon id="_73" class="fil74" points="2443.88,4652.55 2448.69,4627.8 8382.38,5782.19 8377.57,5806.93 "/>
     <polygon id="_74" class="fil75" points="2447.08,4636.05 2451.9,4611.31 8385.59,5765.69 8380.78,5790.44 "/>
     <polygon id="_75" class="fil76" points="2450.3,4619.56 2455.11,4594.81 8388.8,5749.2 8383.99,5773.94 "/>
     <polygon id="_76" class="fil77" points="2453.51,4603.06 2458.32,4578.32 8392.02,5732.7 8387.2,5757.44 "/>
     <polygon id="_77" class="fil78" points="2456.72,4586.56 2461.53,4561.82 8395.22,5716.2 8390.41,5740.95 "/>
     <polygon id="_78" class="fil79" points="2459.92,4570.07 2464.74,4545.32 8398.43,5699.71 8393.62,5724.45 "/>
     <polygon id="_79" class="fil80" points="2463.13,4553.57 2467.95,4528.83 8401.64,5683.21 8396.82,5707.96 "/>
     <polygon id="_80" class="fil81" points="2466.35,4537.08 2471.15,4512.33 8404.85,5666.72 8400.03,5691.46 "/>
     <polygon id="_81" class="fil82" points="2469.55,4520.58 2474.37,4495.84 8408.06,5650.22 8403.25,5674.96 "/>
     <polygon id="_82" class="fil83" points="2472.76,4504.08 2477.58,4479.34 8411.27,5633.72 8406.45,5658.47 "/>
     <polygon id="_83" class="fil84" points="2475.97,4487.59 2480.79,4462.84 8414.48,5617.23 8409.66,5641.97 "/>
     <polygon id="_84" class="fil85" points="2479.18,4471.09 2483.99,4446.35 8417.69,5600.73 8412.87,5625.48 "/>
     <polygon id="_85" class="fil86" points="2482.39,4454.6 2487.2,4429.85 8420.89,5584.24 8416.08,5608.98 "/>
     <polygon id="_86" class="fil87" points="2485.6,4438.1 2490.41,4413.36 8424.1,5567.74 8419.29,5592.48 "/>
     <polygon id="_87" class="fil88" points="2488.81,4421.6 2493.62,4396.86 8427.32,5551.24 8422.5,5575.99 "/>
     <polygon id="_88" class="fil89" points="2492.02,4405.11 2496.83,4380.36 8430.53,5534.75 8425.71,5559.49 "/>
     <polygon id="_89" class="fil90" points="2495.22,4388.61 2500.04,4363.87 8433.73,5518.25 8428.92,5543 "/>
     <polygon id="_90" class="fil91" points="2498.43,4372.12 2503.25,4347.37 8436.94,5501.76 8432.13,5526.5 "/>
     <polygon id="_91" class="fil92" points="2501.65,4355.62 2506.46,4330.88 8440.15,5485.26 8435.33,5510 "/>
     <polygon id="_92" class="fil93" points="2504.86,4339.12 2509.67,4314.38 8443.36,5468.76 8438.55,5493.51 "/>
     <polygon id="_93" class="fil94" points="2508.06,4322.63 2512.88,4297.88 8446.57,5452.28 8441.76,5477.01 "/>
     <polygon id="_94" class="fil95" points="2511.27,4306.13 2516.09,4281.39 8449.78,5435.78 8444.96,5460.52 "/>
     <polygon id="_95" class="fil96" points="2514.48,4289.64 2519.3,4264.89 8452.99,5419.28 8448.17,5444.03 "/>
     <polygon id="_96" class="fil97" points="2517.69,4273.14 2522.5,4248.39 8456.2,5402.79 8451.38,5427.53 "/>
     <polygon id="_97" class="fil98" points="2520.9,4256.64 2525.72,4231.9 8459.4,5386.29 8454.6,5411.04 "/>
     <polygon id="_98" class="fil99" points="2524.11,4240.15 2528.93,4215.41 8462.62,5369.8 8457.8,5394.54 "/>
     <polygon id="_99" class="fil100" points="2527.32,4223.66 2532.13,4198.91 8465.83,5353.3 8461.01,5378.04 "/>
     <polygon id="_100" class="fil101" points="2530.53,4207.16 2535.34,4182.42 8469.03,5336.8 8464.22,5361.55 "/>
     <polygon id="_101" class="fil102" points="2533.73,4190.67 2538.55,4165.92 8472.24,5320.31 8467.43,5345.05 "/>
     <polygon id="_102" class="fil103" points="2536.95,4174.17 2541.76,4149.43 8475.45,5303.81 8470.64,5328.56 "/>
     <polygon id="_103" class="fil104" points="2540.16,4157.67 2544.97,4132.93 8478.66,5287.32 8473.85,5312.06 "/>
     <polygon id="_104" class="fil105" points="2543.37,4141.18 2548.18,4116.43 8481.87,5270.82 8477.06,5295.56 "/>
     <polygon id="_105" class="fil106" points="2546.57,4124.68 2551.39,4099.94 8485.08,5254.32 8480.27,5279.07 "/>
     <polygon id="_106" class="fil107" points="2549.78,4108.19 2554.6,4083.44 8488.29,5237.83 8483.47,5262.57 "/>
     <polygon id="_107" class="fil108" points="2553,4091.69 2557.8,4066.95 8491.5,5221.33 8486.68,5246.07 "/>
     <polygon id="_108" class="fil109" points="2556.2,4075.19 2561.02,4050.45 8494.71,5204.83 8489.9,5229.58 "/>
     <polygon id="_109" class="fil110" points="2559.41,4058.7 2564.23,4033.95 8497.92,5188.34 8493.1,5213.08 "/>
     <polygon id="_110" class="fil111" points="2562.62,4042.2 2567.44,4017.46 8501.13,5171.84 8496.31,5196.59 "/>
     <polygon id="_111" class="fil112" points="2565.83,4025.71 2570.64,4000.96 8504.34,5155.35 8499.52,5180.09 "/>
     <polygon id="_112" class="fil113" points="2569.04,4009.21 2573.85,3984.47 8507.54,5138.85 8502.73,5163.59 "/>
     <polygon id="_113" class="fil114" points="2572.25,3992.71 2577.06,3967.97 8510.75,5122.35 8505.94,5147.1 "/>
     <polygon id="_114" class="fil115" points="2575.46,3976.22 2580.27,3951.47 8513.97,5105.86 8509.15,5130.6 "/>
     <polygon id="_115" class="fil116" points="2578.67,3959.72 2583.48,3934.98 8517.17,5089.36 8512.36,5114.11 "/>
     <polygon id="_116" class="fil117" points="2581.87,3943.23 2586.69,3918.48 8520.38,5072.87 8515.57,5097.61 "/>
     <polygon id="_117" class="fil118" points="2585.08,3926.73 2589.9,3901.99 8523.59,5056.37 8518.78,5081.11 "/>
     <polygon id="_118" class="fil119" points="2588.3,3910.23 2593.11,3885.49 8526.8,5039.87 8521.98,5064.62 "/>
     <polygon id="_119" class="fil120" points="2591.51,3893.74 2596.32,3868.99 8530.01,5023.38 8525.2,5048.12 "/>
     <polygon id="_120" class="fil121" points="2594.71,3877.24 2599.53,3852.5 8533.22,5006.88 8528.41,5031.63 "/>
     <polygon id="_121" class="fil122" points="2597.92,3860.75 2602.74,3836 8536.43,4990.39 8531.61,5015.13 "/>
     <polygon id="_122" class="fil123" points="2601.13,3844.25 2605.94,3819.51 8539.64,4973.89 8534.82,4998.63 "/>
     <polygon id="_123" class="fil124" points="2604.34,3827.75 2609.15,3803.01 8542.85,4957.39 8538.03,4982.14 "/>
     <polygon id="_124" class="fil125" points="2607.55,3811.26 2612.36,3786.51 8546.05,4940.9 8541.25,4965.64 "/>
     <polygon id="_125" class="fil126" points="2610.76,3794.76 2615.58,3770.02 8549.27,4924.4 8544.45,4949.15 "/>
     <polygon id="_126" class="fil127" points="2613.97,3778.27 2618.78,3753.52 8552.48,4907.91 8547.66,4932.65 "/>
     <polygon id="_127" class="fil128" points="2617.18,3761.77 2621.99,3737.03 8555.68,4891.41 8550.87,4916.15 "/>
     <polygon id="_128" class="fil129" points="2620.38,3745.27 2625.2,3720.53 8558.89,4874.91 8554.08,4899.66 "/>
     <polygon id="_129" class="fil130" points="2623.6,3728.78 2628.41,3704.03 8562.1,4858.42 8557.29,4883.16 "/>
     <polygon id="_130" class="fil131" points="2626.81,3712.28 2631.62,3687.54 8565.31,4841.92 8560.5,4866.67 "/>
     <polygon id="_131" class="fil132" points="2630.01,3695.78 2634.83,3671.04 8568.52,4825.43 8563.71,4850.17 "/>
     <polygon id="_132" class="fil133" points="2633.22,3679.29 2638.04,3654.54 8571.73,4808.93 8566.92,4833.67 "/>
     <polygon id="_133" class="fil134" points="2636.43,3662.79 2641.25,3638.05 8574.94,4792.43 8570.12,4817.18 "/>
     <polygon id="_134" class="fil135" points="2639.65,3646.3 2644.45,3621.55 8578.15,4775.94 8573.33,4800.68 "/>
     <polygon id="_135" class="fil136" points="2642.85,3629.8 2647.67,3605.06 8581.35,4759.44 8576.55,4784.19 "/>
     <polygon id="_136" class="fil137" points="2646.06,3613.3 2650.88,3588.56 8584.57,4742.95 8579.75,4767.69 "/>
     <polygon id="_137" class="fil138" points="2649.27,3596.81 2654.09,3572.06 8587.78,4726.45 8582.96,4751.19 "/>
     <polygon id="_138" class="fil139" points="2652.48,3580.31 2657.29,3555.57 8590.99,4709.95 8586.17,4734.7 "/>
     <polygon id="_139" class="fil140" points="2655.69,3563.82 2660.5,3539.07 8594.19,4693.46 8589.38,4718.2 "/>
     <polygon id="_140" class="fil141" points="2658.9,3547.32 2663.71,3522.58 8597.4,4676.96 8592.59,4701.71 "/>
     <polygon id="_141" class="fil142" points="2662.11,3530.82 2666.92,3506.08 8600.61,4660.47 8595.8,4685.21 "/>
     <polygon id="_142" class="fil143" points="2665.32,3514.33 2670.13,3489.58 8603.82,4643.97 8599.01,4668.71 "/>
     <polygon id="_143" class="fil144" points="2668.52,3497.83 2673.34,3473.09 8607.03,4627.47 8602.22,4652.22 "/>
     <polygon id="_144" class="fil145" points="2671.73,3481.34 2676.55,3456.59 8610.24,4610.98 8605.43,4635.72 "/>
     <polygon id="_145" class="fil146" points="2674.95,3464.84 2679.76,3440.1 8613.45,4594.48 8608.63,4619.23 "/>
     <polygon id="_146" class="fil147" points="2678.16,3448.34 2682.97,3423.6 8616.66,4577.99 8611.85,4602.73 "/>
     <polygon id="_147" class="fil148" points="2681.36,3431.85 2686.18,3407.1 8619.87,4561.49 8615.06,4586.23 "/>
     <polygon id="_148" class="fil149" points="2684.57,3415.35 2689.39,3390.61 8623.08,4544.99 8618.26,4569.74 "/>
     <polygon id="_149" class="fil150" points="2687.78,3398.86 2692.59,3374.11 8626.29,4528.5 8621.47,4553.24 "/>
     <polygon id="_150" class="fil151" points="2690.99,3382.36 2695.8,3357.62 8629.5,4512 8624.68,4536.75 "/>
     <polygon id="_151" class="fil152" points="2694.2,3365.86 2699.01,3341.12 8632.7,4495.51 8627.89,4520.25 "/>
     <polygon id="_152" class="fil153" points="2697.41,3349.37 2702.23,3324.62 8635.92,4479.01 8631.1,4503.75 "/>
     <polygon id="_153" class="fil154" points="2700.62,3332.87 2705.43,3308.13 8639.13,4462.51 8634.31,4487.26 "/>
     <polygon id="_154" class="fil27" points="2703.83,3316.38 2708.64,3291.63 8642.33,4446.02 8637.52,4470.76 "/>
     <polygon id="_155" class="fil26" points="2707.03,3299.88 2711.85,3275.14 8645.54,4429.52 8640.73,4454.27 "/>
     <polygon id="_156" class="fil25" points="2710.25,3283.38 2715.06,3258.64 8648.75,4413.03 8643.93,4437.77 "/>
     <polygon id="_157" class="fil155" points="2713.46,3266.89 2718.27,3242.14 8651.96,4396.53 8647.15,4421.27 "/>
     <polygon id="_158" class="fil156" points="2716.66,3250.39 2721.48,3225.65 8655.17,4380.03 8650.36,4404.78 "/>
     <polygon id="_159" class="fil157" points="2719.87,3233.9 2724.69,3209.15 8658.38,4363.54 8653.57,4388.28 "/>
     <polygon id="_160" class="fil158" points="2723.08,3217.4 2727.9,3192.66 8661.59,4347.04 8656.77,4371.79 "/>
     <polygon id="_161" class="fil159" points="2726.3,3200.9 2731.1,3176.16 8664.8,4330.55 8659.98,4355.29 "/>
     <polygon id="_162" class="fil19" points="2729.5,3184.41 2734.31,3159.66 8668,4314.05 8663.2,4338.79 "/>
     <polygon id="_163" class="fil18" points="2732.71,3167.91 2737.53,3143.17 8671.22,4297.55 8666.4,4322.3 "/>
     <polygon id="_164" class="fil17" points="2735.92,3151.42 2740.73,3126.67 8674.43,4281.06 8669.61,4305.8 "/>
     <polygon id="_165" class="fil160" points="2739.13,3134.92 2743.94,3110.18 8677.64,4264.56 8672.82,4289.31 "/>
     <polygon id="_166" class="fil161" points="2742.34,3118.42 2747.15,3093.68 8680.84,4248.07 8676.03,4272.81 "/>
     <polygon id="_167" class="fil162" points="2745.55,3101.93 2750.36,3077.18 8684.05,4231.57 8679.24,4256.31 "/>
     <polygon id="_168" class="fil163" points="2748.76,3085.43 2753.57,3060.69 8687.26,4215.07 8682.45,4239.82 "/>
     <polygon id="_169" class="fil164" points="2751.97,3068.94 2756.78,3044.19 8690.47,4198.58 8685.66,4223.32 "/>
     <polygon id="_170" class="fil165" points="2755.17,3052.44 2759.99,3027.7 8693.68,4182.08 8688.87,4206.82 "/>
     <polygon id="_171" class="fil166" points="2758.38,3035.94 2763.2,3011.2 8696.89,4165.58 8692.07,4190.33 "/>
     <polygon id="_172" class="fil167" points="2761.6,3019.45 2766.41,2994.7 8700.1,4149.09 8695.28,4173.83 "/>
     <polygon id="_173" class="fil168" points="2764.81,3002.95 2769.62,2978.21 8703.31,4132.6 8698.5,4157.34 "/>
     <polygon id="_174" class="fil8" points="2768.01,2986.46 2772.83,2961.71 8706.52,4116.1 8701.71,4140.84 "/>
     <polygon id="_175" class="fil7" points="2771.22,2969.96 2776.04,2945.22 8709.73,4099.61 8704.91,4124.35 "/>
     <polygon id="_176" class="fil6" points="2774.43,2953.46 2779.24,2928.72 8712.94,4083.11 8708.12,4107.86 "/>
     <polygon id="_177" class="fil5" points="2777.64,2936.97 2782.45,2912.23 8716.15,4066.62 8711.33,4091.36 "/>
     <polygon id="_178" class="fil4" points="2780.85,2920.47 2785.66,2895.73 8719.35,4050.12 8714.54,4074.86 "/>
     <polygon id="_179" class="fil3" points="2784.06,2903.98 2788.88,2879.24 8722.57,4033.62 8717.75,4058.37 "/>
     <polygon id="_180" class="fil2" points="2787.27,2887.49 2792.08,2862.74 8725.78,4017.13 8720.96,4041.87 "/>
     <polygon id="_181" class="fil1" points="2790.48,2870.99 2795.29,2846.25 8728.98,4000.63 8724.17,4025.38 "/>
     <polygon id="_182" class="fil169" points="2793.68,2854.49 2798.5,2829.75 8732.19,3984.14 8727.38,4008.88 "/>
     <polygon id="_183" class="fil170" points="2796.9,2838 2801.71,2813.25 8735.4,3967.64 8730.58,3992.38 "/>
     <polygon id="_184" class="fil171" points="2800.11,2821.5 2804.92,2796.76 8738.61,3951.14 8733.8,3975.89 "/>
     <polygon id="_185" class="fil172" points="2803.31,2805.01 2808.13,2780.26 8741.82,3934.65 8737.01,3959.39 "/>
     <polygon id="_186" class="fil173" points="2806.52,2788.51 2811.34,2763.77 8745.03,3918.15 8740.22,3942.9 "/>
     <polygon id="_187" class="fil174" points="2809.73,2772.01 2814.55,2747.27 8748.24,3901.66 8743.42,3926.4 "/>
     <polygon id="_188" class="fil175" points="2812.95,2755.52 2817.75,2730.77 8751.45,3885.16 8746.63,3909.9 "/>
     <polygon id="_189" class="fil176" points="2816.15,2739.02 2820.96,2714.28 8754.65,3868.66 8749.85,3893.41 "/>
     <polygon id="_190" class="fil177" points="2819.36,2722.53 2824.18,2697.78 8757.87,3852.17 8753.05,3876.91 "/>
     <polygon id="_191" class="fil178" points="2822.57,2706.03 2827.38,2681.29 8761.08,3835.67 8756.26,3860.42 "/>
     <polygon id="_192" class="fil179" points="2825.78,2689.53 2830.59,2664.79 8764.29,3819.18 8759.47,3843.92 "/>
     <polygon id="_193" class="fil180" points="2828.99,2673.04 2833.8,2648.29 8767.49,3802.68 8762.68,3827.42 "/>
     <polygon id="_194" class="fil181" points="2832.2,2656.54 2837.01,2631.8 8770.7,3786.18 8765.89,3810.93 "/>
     <polygon id="_195" class="fil182" points="2835.41,2640.05 2840.22,2615.3 8773.91,3769.69 8769.1,3794.43 "/>
     <polygon id="_196" class="fil183" points="2838.62,2623.55 2843.43,2598.81 8777.12,3753.19 8772.31,3777.94 "/>
     <polygon id="_197" class="fil184" points="2841.82,2607.05 2846.64,2582.31 8780.33,3736.7 8775.52,3761.44 "/>
     <polygon id="_198" class="fil185" points="2845.03,2590.56 2849.85,2565.81 8783.54,3720.2 8778.72,3744.94 "/>
     <polygon id="_199" class="fil186" points="2848.25,2574.06 2853.06,2549.32 8786.75,3703.7 8781.93,3728.45 "/>
     <polygon id="_200" class="fil187" points="2851.45,2557.57 2856.27,2532.82 8789.96,3687.21 8785.15,3711.95 "/>
     <polygon id="_201" class="fil188" points="2854.66,2541.07 2859.48,2516.33 8793.17,3670.71 8788.36,3695.46 "/>
     <polygon id="_202" class="fil189" points="2857.87,2524.57 2862.69,2499.83 8796.38,3654.21 8791.56,3678.96 "/>
     <polygon id="_203" class="fil190" points="2861.08,2508.08 2865.89,2483.33 8799.59,3637.72 8794.77,3662.46 "/>
     <polygon id="_204" class="fil191" points="2864.29,2491.58 2869.1,2466.84 8802.79,3621.22 8797.98,3645.97 "/>
     <polygon id="_205" class="fil192" points="2867.5,2475.09 2872.31,2450.34 8806,3604.73 8801.19,3629.47 "/>
     <polygon id="_206" class="fil193" points="2870.71,2458.59 2875.53,2433.85 8809.21,3588.23 8804.4,3612.97 "/>
     <polygon id="_207" class="fil194" points="2873.92,2442.09 2878.73,2417.35 8812.43,3571.73 8807.61,3596.48 "/>
     <polygon id="_208" class="fil195" points="2877.13,2425.6 2881.94,2400.85 8815.63,3555.24 8810.82,3579.98 "/>
     <polygon id="_209" class="fil196" points="2880.33,2409.1 2885.15,2384.36 8818.84,3538.74 8814.03,3563.49 "/>
     <polygon id="_210" class="fil197" points="2883.55,2392.61 2888.36,2367.86 8822.05,3522.25 8817.23,3546.99 "/>
     <polygon id="_211" class="fil198" points="2886.76,2376.11 2891.57,2351.37 8825.26,3505.75 8820.45,3530.49 "/>
     <polygon id="_212" class="fil199" points="2889.96,2359.61 2894.78,2334.87 8828.47,3489.25 8823.66,3514 "/>
     <polygon id="_213" class="fil200" points="2893.17,2343.12 2897.99,2318.37 8831.68,3472.76 8826.87,3497.5 "/>
     <polygon id="_214" class="fil201" points="2896.38,2326.62 2901.2,2301.88 8834.89,3456.26 8830.07,3481.01 "/>
     <polygon id="_215" class="fil202" points="2899.59,2310.13 2904.4,2285.38 8838.1,3439.77 8833.28,3464.51 "/>
     <polygon id="_216" class="fil203" points="2902.8,2293.63 2907.61,2268.89 8841.3,3423.27 8836.5,3448.01 "/>
     <polygon id="_217" class="fil204" points="2906.01,2277.13 2910.83,2252.39 8844.52,3406.77 8839.7,3431.52 "/>
     <polygon id="_218" class="fil205" points="2909.22,2260.64 2914.03,2235.89 8847.73,3390.28 8842.91,3415.02 "/>
     <polygon id="_219" class="fil206" points="2912.43,2244.14 2917.24,2219.4 8850.94,3373.78 8846.12,3398.53 "/>
     <polygon id="_220" class="fil205" points="2915.63,2227.65 2920.45,2202.9 8854.14,3357.29 8849.33,3382.03 "/>
     <polygon id="_221" class="fil204" points="2918.85,2211.15 2923.66,2186.41 8857.35,3340.79 8852.54,3365.53 "/>
     <polygon id="_222" class="fil207" points="2922.06,2194.65 2926.87,2169.91 8860.56,3324.29 8855.75,3349.04 "/>
     <polygon id="_223" class="fil208" points="2925.27,2178.16 2930.08,2153.41 8863.77,3307.8 8858.96,3332.54 "/>
     <polygon id="_224" class="fil202" points="2928.47,2161.66 2933.29,2136.92 8866.98,3291.3 8862.17,3316.05 "/>
     <polygon id="_225" class="fil201" points="2931.68,2145.17 2936.5,2120.42 8870.19,3274.81 8865.37,3299.55 "/>
     <polygon id="_226" class="fil209" points="2934.9,2128.67 2939.71,2103.92 8873.4,3258.31 8868.58,3283.05 "/>
     <polygon id="_227" class="fil198" points="2938.1,2112.17 2942.91,2087.43 8876.61,3241.81 8871.8,3266.56 "/>
     <polygon id="_228" class="fil197" points="2941.31,2095.68 2946.13,2070.93 8879.82,3225.32 8875.01,3250.06 "/>
     <polygon id="_229" class="fil196" points="2944.52,2079.18 2949.34,2054.44 8883.03,3208.82 8878.21,3233.57 "/>
     <polygon id="_230" class="fil195" points="2947.73,2062.68 2952.54,2037.94 8886.24,3192.33 8881.42,3217.07 "/>
     <polygon id="_231" class="fil194" points="2950.94,2046.19 2955.75,2021.44 8889.44,3175.83 8884.63,3200.57 "/>
     <polygon id="_232" class="fil193" points="2954.15,2029.69 2958.96,2004.95 8892.65,3159.33 8887.84,3184.08 "/>
     <polygon id="_233" class="fil210" points="2957.36,2013.2 2962.17,1988.45 8895.86,3142.84 8891.05,3167.58 "/>
     <polygon id="_234" class="fil191" points="2960.57,1996.7 2965.38,1971.96 8899.08,3126.34 8894.26,3151.09 "/>
     <polygon id="_235" class="fil190" points="2963.78,1980.2 2968.59,1955.46 8902.28,3109.85 8897.47,3134.59 "/>
     <polygon id="_236" class="fil189" points="2966.98,1963.71 2971.8,1938.96 8905.49,3093.35 8900.68,3118.09 "/>
     <polygon id="_237" class="fil188" points="2970.2,1947.21 2975.01,1922.47 8908.7,3076.85 8903.88,3101.6 "/>
     <polygon id="_238" class="fil211" points="2973.41,1930.72 2978.22,1905.97 8911.91,3060.36 8907.1,3085.1 "/>
     <polygon id="_239" class="fil212" points="2976.61,1914.22 2981.43,1889.48 8915.12,3043.86 8910.31,3068.61 "/>
     <polygon id="_240" class="fil213" points="2979.82,1897.72 2984.64,1872.98 8918.33,3027.37 8913.51,3052.11 "/>
     <polygon id="_241" class="fil214" points="2983.03,1881.23 2987.85,1856.48 8921.54,3010.87 8916.72,3035.61 "/>
     <polygon id="_242" class="fil215" points="2986.24,1864.73 2991.05,1839.99 8924.75,2994.37 8919.93,3019.12 "/>
     <polygon id="_243" class="fil216" points="2989.45,1848.24 2994.26,1823.49 8927.95,2977.88 8923.15,3002.62 "/>
     <polygon id="_244" class="fil217" points="2992.66,1831.74 2997.48,1807 8931.16,2961.38 8926.35,2986.13 "/>
     <polygon id="_245" class="fil180" points="2995.87,1815.24 3000.68,1790.5 8934.38,2944.89 8929.56,2969.63 "/>
     <polygon id="_246" class="fil179" points="2999.08,1798.75 3003.89,1774 8937.59,2928.39 8932.77,2953.13 "/>
     <polygon id="_247" class="fil178" points="3002.28,1782.25 3007.1,1757.51 8940.79,2911.89 8935.98,2936.64 "/>
     <polygon id="_248" class="fil218" points="3005.5,1765.76 3010.31,1741.01 8944,2895.4 8939.19,2920.14 "/>
     <polygon id="_249" class="fil175" points="3008.71,1749.26 3013.52,1724.52 8947.21,2878.9 8942.4,2903.65 "/>
     <polygon id="_250" class="fil174" points="3011.92,1732.76 3016.73,1708.02 8950.42,2862.41 8945.61,2887.15 "/>
     <polygon id="_251" class="fil219" points="3015.12,1716.27 3019.94,1691.52 8953.63,2845.91 8948.82,2870.65 "/>
     <polygon id="_252" class="fil172" points="3018.33,1699.77 3023.15,1675.03 8956.84,2829.41 8952.02,2854.16 "/>
     <polygon id="_253" class="fil171" points="3021.55,1683.28 3026.35,1658.53 8960.05,2812.92 8955.23,2837.66 "/>
     <polygon id="_254" class="fil170" points="3024.75,1666.78 3029.56,1642.04 8963.26,2796.43 8958.45,2821.17 "/>
     <polygon id="_255" class="fil169" points="3027.96,1650.28 3032.78,1625.54 8966.47,2779.93 8961.66,2804.68 "/>
     <polygon id="_256" class="fil1" points="3031.17,1633.79 3035.99,1609.04 8969.68,2763.44 8964.86,2788.18 "/>
     <polygon id="_257" class="fil2" points="3034.38,1617.29 3039.19,1592.55 8972.89,2746.94 8968.07,2771.68 "/>
     <polygon id="_258" class="fil3" points="3037.59,1600.8 3042.4,1576.06 8976.09,2730.44 8971.28,2755.19 "/>
     <polygon id="_259" class="fil4" points="3040.8,1584.31 3045.61,1559.56 8979.3,2713.95 8974.49,2738.69 "/>
     <polygon id="_260" class="fil5" points="3044.01,1567.81 3048.82,1543.07 8982.51,2697.45 8977.7,2722.2 "/>
     <polygon id="_261" class="fil6" points="3047.22,1551.31 3052.03,1526.57 8985.73,2680.96 8980.91,2705.7 "/>
     <polygon id="_262" class="fil7" points="3050.43,1534.82 3055.24,1510.07 8988.93,2664.46 8984.12,2689.2 "/>
     <polygon id="_263" class="fil8" points="3053.63,1518.32 3058.45,1493.58 8992.14,2647.96 8987.33,2672.71 "/>
     <polygon id="_264" class="fil9" points="3056.85,1501.83 3061.66,1477.08 8995.35,2631.47 8990.53,2656.21 "/>
     <polygon id="_265" class="fil10" points="3060.06,1485.33 3064.87,1460.59 8998.56,2614.97 8993.75,2639.72 "/>
     <polygon id="_266" class="fil11" points="3063.26,1468.83 3068.08,1444.09 9001.77,2598.48 8996.96,2623.22 "/>
     <polygon id="_267" class="fil12" points="3066.47,1452.34 3071.29,1427.59 9004.98,2581.98 9000.16,2606.72 "/>
     <polygon id="_268" class="fil13" points="3069.68,1435.84 3074.5,1411.1 9008.19,2565.48 9003.37,2590.23 "/>
     <polygon id="_269" class="fil14" points="3072.89,1419.35 3077.7,1394.6 9011.4,2548.99 9006.58,2573.73 "/>
     <polygon id="_270" class="fil15" points="3076.1,1402.85 3080.91,1378.11 9014.6,2532.49 9009.8,2557.24 "/>
     <polygon id="_271" class="fil16" points="3079.31,1386.35 3084.13,1361.61 9017.81,2516 9013,2540.74 "/>
     <polygon id="_272" class="fil17" points="3082.52,1369.86 3087.33,1345.11 9021.03,2499.5 9016.21,2524.24 "/>
     <polygon id="_273" class="fil18" points="3085.73,1353.36 3090.54,1328.62 9024.23,2483 9019.42,2507.75 "/>
     <polygon id="_274" class="fil19" points="3088.93,1336.87 3093.75,1312.12 9027.44,2466.51 9022.63,2491.25 "/>
     <polygon id="_275" class="fil20" points="3092.15,1320.37 3096.96,1295.63 9030.65,2450.01 9025.84,2474.76 "/>
     <polygon id="_276" class="fil21" points="3095.36,1303.87 3100.17,1279.13 9033.86,2433.52 9029.05,2458.26 "/>
     <polygon id="_277" class="fil22" points="3098.57,1287.38 3103.38,1262.63 9037.07,2417.02 9032.26,2441.76 "/>
     <polygon id="_278" class="fil23" points="3101.77,1270.88 3106.59,1246.14 9040.28,2400.52 9035.47,2425.27 "/>
     <polygon id="_279" class="fil24" points="3104.98,1254.39 3109.8,1229.64 9043.49,2384.03 9038.67,2408.77 "/>
     <polygon id="_280" class="fil25" points="3108.19,1237.89 3113,1213.15 9046.7,2367.53 9041.88,2392.28 "/>
     <polygon id="_281" class="fil26" points="3111.4,1221.39 3116.21,1196.65 9049.91,2351.04 9045.1,2375.78 "/>
     <polygon id="_282" class="fil27" points="3114.61,1204.9 3119.43,1180.15 9053.12,2334.54 9048.3,2359.28 "/>
     <polygon id="_283" class="fil28" points="3117.82,1188.4 3122.64,1163.66 9056.33,2318.04 9051.51,2342.79 "/>
     <polygon id="_284" class="fil29" points="3121.03,1171.91 3125.84,1147.16 9059.54,2301.55 9054.72,2326.29 "/>
     <polygon id="_285" class="fil30" points="3124.24,1155.41 3129.05,1130.67 9062.74,2285.05 9057.93,2309.8 "/>
     <polygon id="_286" class="fil31" points="3127.45,1138.91 3132.26,1114.17 9065.95,2268.56 9061.14,2293.3 "/>
     <polygon id="_287" class="fil32" points="3130.66,1122.42 3135.47,1097.67 9069.16,2252.06 9064.35,2276.8 "/>
     <polygon id="_288" class="fil33" points="3133.87,1105.92 3138.68,1081.18 9072.38,2235.56 9067.56,2260.31 "/>
     <polygon id="_289" class="fil34" points="3137.07,1089.43 3141.89,1064.68 9075.58,2219.07 9070.77,2243.81 "/>
     <polygon id="_290" class="fil35" points="3140.28,1072.93 3145.1,1048.19 9078.79,2202.57 9073.98,2227.32 "/>
     <polygon id="_291" class="fil36" points="3143.5,1056.43 3148.31,1031.69 9082,2186.08 9077.18,2210.82 "/>
     <polygon id="_292" class="fil37" points="3146.71,1039.94 3151.51,1015.19 9085.21,2169.58 9080.4,2194.32 "/>
     <polygon id="_293" class="fil38" points="3149.91,1023.44 3154.73,998.7 9088.42,2153.08 9083.61,2177.83 "/>
     <polygon id="_294" class="fil39" points="3153.12,1006.95 3157.94,982.2 9091.63,2136.59 9086.81,2161.33 "/>
     <polygon id="_295" class="fil40" points="3156.33,990.45 3161.15,965.71 9094.84,2120.09 9090.02,2144.84 "/>
     <polygon id="_296" class="fil41" points="3159.54,973.95 3164.35,949.21 9098.05,2103.6 9093.23,2128.34 "/>
     <polygon id="_297" class="fil42" points="3162.75,957.46 3167.56,932.71 9101.25,2087.1 9096.44,2111.84 "/>
     <polygon id="_298" class="fil43" points="3165.96,940.96 3170.78,916.22 9104.46,2070.6 9099.65,2095.35 "/>
     <polygon id="_299" class="fil44" points="3169.17,924.47 3173.98,899.72 9107.68,2054.11 9102.86,2078.85 "/>
     <polygon id="_300" class="fil45" points="3172.38,907.97 3177.19,883.23 9110.88,2037.61 9106.07,2062.35 "/>
     <polygon id="_301" class="fil46" points="3175.58,891.47 3180.4,866.73 9114.09,2021.11 9109.28,2045.86 "/>
     <polygon id="_302" class="fil47" points="3178.8,874.98 3183.61,850.23 9117.3,2004.62 9112.49,2029.36 "/>
     <polygon id="_303" class="fil48" points="3182.01,858.48 3186.82,833.74 9120.51,1988.12 9115.7,2012.87 "/>
     <polygon id="_304" class="fil49" points="3185.22,841.99 3190.03,817.24 9123.72,1971.63 9118.91,1996.37 "/>
     <polygon id="_305" class="fil50" points="3188.42,825.49 3193.24,800.75 9126.93,1955.13 9122.12,1979.87 "/>
     <polygon id="_306" class="fil51" points="3191.63,808.99 3196.45,784.25 9130.14,1938.63 9125.32,1963.38 "/>
     <polygon id="_307" class="fil52" points="3194.84,792.5 3199.65,767.75 9133.35,1922.14 9128.53,1946.88 "/>
     <polygon id="_308" class="fil53" points="3198.05,776 3202.86,751.26 9136.56,1905.64 9131.75,1930.39 "/>
     <polygon id="_309" class="fil54" points="3201.26,759.51 3206.08,734.76 9139.76,1889.15 9134.95,1913.89 "/>
     <polygon id="_310" class="fil55" points="3204.47,743.01 3209.29,718.27 9142.98,1872.65 9138.16,1897.39 "/>
     <polygon id="_311" class="fil56" points="3207.68,726.51 3212.49,701.77 9146.19,1856.15 9141.37,1880.9 "/>
     <polygon id="_312" class="fil57" points="3210.89,710.02 3215.7,685.27 9149.39,1839.66 9144.58,1864.4 "/>
     <polygon id="_313" class="fil58" points="3214.1,693.52 3218.91,668.78 9152.6,1823.16 9147.79,1847.91 "/>
     <polygon id="_314" class="fil59" points="3217.31,677.03 3217.11,678.01 9150.8,1832.4 9151,1831.41 "/>
    </g>
   </g>
   <path class="fil220" d="M5641.32 2829.08c-83.61,-168.08 -167.13,-336.02 -228.65,-501.3 -61.53,-165.28 -101.12,-328.05 -97.02,-487.31 4.11,-159.25 -21.31,-314.88 26.34,-470.38l-256.31 -301.47c-5.29,-6.22 -375.13,363.92 -525.57,390.66 -268.53,47.73 -548.84,122.48 -833.38,233.66 -284.88,111.31 -574.21,259.23 -864.3,441.83 -290.65,182.97 -582.27,400.87 -900.39,720.69 -319.17,320.88 -665.68,745.02 -904.23,1133.79 -239.51,390.32 -369.99,744.68 -467.72,1096.49 -98.09,353.07 -163.19,703.56 -190.15,956.62 -27.03,253.72 -15.67,409 29.85,629.91 45.61,221.4 125.59,509.01 306.26,805.12 181.2,296.98 463.71,602.55 797.9,800.02 334.84,197.85 720.83,286.75 942.58,331.21 221.83,44.48 279.1,44.44 738.08,51.97 458.98,7.52 1319.71,22.6 2180.46,37.69 40.29,-196.24 80.49,-392.1 90.45,-570.91 9.94,-178.49 -10.25,-340.06 -52.26,-468.23 -41.97,-128.01 -105.74,-222.79 -198.09,-302.05 -92.28,-79.2 -213.13,-142.93 -310.69,-174.76 -97.52,-31.82 -171.81,-31.78 -452.15,-40.43 -280.31,-8.64 -766.62,-25.97 -1021.76,-34.63 -255.14,-8.66 -279.18,-8.64 -391.26,-70.08 -112.02,-61.4 -311.86,-184.09 -463.29,-370.11 -151.15,-185.68 -253.88,-434.21 -317.42,-691.92 -63.37,-257.04 -87.74,-523.15 -27.99,-807.97 59.57,-283.99 202.75,-586.47 352.45,-828.22 149.33,-241.14 305.32,-422.15 453.51,-572.03 147.94,-149.65 288.18,-268.36 463.29,-385.87 174.9,-117.37 384.59,-233.54 590.22,-320.07 205.44,-86.45 406.95,-143.34 579.1,-178.1 172.09,-34.75 314.91,-47.4 423.71,-53.73 108.8,-6.32 256.76,-6.34 326.97,-5.31 70.22,1.04 135.84,3.13 201.46,5.22z"/>
   <path class="fil221" d="M7256.51 5714.9c86.81,173.91 173.78,348.12 238.65,520.46 64.99,172.65 107.82,343.41 105.81,511.19 -2.01,168.06 -49.01,333.14 -96.09,498.48 264.51,-22.2 528.94,-44.4 804.63,-95.25 275.55,-50.82 562.18,-130.24 851.58,-248.07 289.04,-117.68 580.63,-273.6 870.7,-465.36 289.51,-191.4 577.3,-418.35 885.78,-749.54 307.42,-330.06 634.75,-762.94 852.96,-1156.37 217.33,-391.83 326.62,-744.86 402.8,-1092.82 75.91,-346.73 118.96,-688.48 130.17,-933.75 11.19,-244.65 -9.28,-393.77 -66.93,-605.14 -57.53,-210.91 -152,-483.52 -343.89,-762.62 -191.35,-278.3 -479.53,-563.01 -810.53,-746.18 -330.38,-182.84 -704.13,-264.9 -918.31,-305.91 -214.08,-40.99 -268.91,-40.99 -708.66,-48.15 -439.75,-7.17 -1264.4,-21.52 -2089.02,-35.86 -36.57,180.45 -73.2,361.24 -81.01,526.91 -7.83,165.96 13.27,316.71 55.23,436.64 42.01,120.09 104.87,209.21 195.42,283.89 90.62,74.73 208.92,134.97 304.21,165.09 95.33,30.14 167.56,30.13 440.3,38.41 272.75,8.29 746.05,24.88 994.4,33.17 248.36,8.29 271.74,8.29 382.79,66.54 111.12,58.28 310.16,174.96 464.87,352.35 154.99,177.7 265.68,416.55 338.77,665.46 73.28,249.55 108.79,509.25 61.94,788.75 -46.98,280.31 -176.82,580.65 -316.43,822.01 -139.95,241.98 -289.54,424.4 -432.95,575.99 -143.63,151.81 -280.96,272.58 -453.88,392.43 -173.14,120 -381.95,239.09 -587.93,327.97 -206.16,88.97 -409.34,147.64 -583.38,183.53 -174.11,35.91 -318.97,49 -429.42,55.56 -110.46,6.56 -186.48,6.6 -257.84,5.54 -71.36,-1.05 -138.06,-3.2 -204.76,-5.34z"/>
   <path class="fil222" d="M3708.94 5599.17l-1448.57 -3.36 5059.18 -3819.93 1528.54 -2.37 -1531.06 3830.45 -1507.94 -0.89 334.99 -649.73 -1640.68 -8.84 -794.46 654.67zm2828.65 -1458.24l-1008.69 -13.57 1682.16 -1363.23 -673.47 1376.8z"/>
   <path class="fil223" d="M5314.04 2520.5c-83.61,-168.08 -167.07,-335.88 -228.65,-501.3 -61.47,-165.14 -101.13,-327.91 -97.02,-487.31 4.11,-159.12 51.84,-314.88 99.5,-470.38 -256.71,20.74 -513.49,41.49 -781.88,89.19 -268.53,47.73 -548.85,122.48 -833.39,233.66 -284.88,111.31 -574.2,259.23 -864.29,441.83 -290.65,182.97 -582.27,400.87 -900.39,720.69 -319.17,320.88 -665.69,745.02 -904.23,1133.79 -239.51,390.32 -369.99,744.68 -467.73,1096.49 -98.08,353.07 -163.18,703.56 -190.15,956.62 -27.03,253.72 -15.67,409 29.85,629.91 45.61,221.4 125.59,509.01 306.26,805.12 181.2,296.98 463.71,602.55 797.91,800.02 334.83,197.85 720.83,286.75 942.58,331.21 221.83,44.48 279.09,44.44 738.07,51.97 458.98,7.52 1319.71,22.6 2180.47,37.69 40.28,-196.24 80.49,-392.1 90.44,-570.91 9.95,-178.49 -10.24,-340.06 -52.26,-468.23 -41.96,-128.01 -105.73,-222.79 -198.09,-302.05 -92.28,-79.2 -213.14,-142.93 -310.69,-174.76 -97.52,-31.82 -171.82,-31.78 -452.15,-40.43 -280.32,-8.64 -766.62,-25.97 -1021.77,-34.63 -255.13,-8.66 -279.17,-8.64 -391.26,-70.08 -112.03,-61.4 -311.87,-184.09 -463.29,-370.11 -151.15,-185.68 -253.88,-434.21 -317.42,-691.92 -63.37,-257.04 -87.74,-523.15 -28,-807.97 59.58,-283.99 202.75,-586.47 352.45,-828.22 149.33,-241.14 305.33,-422.15 453.51,-572.03 147.94,-149.65 288.19,-268.36 463.3,-385.87 174.9,-117.37 384.59,-233.54 590.21,-320.07 205.44,-86.45 406.95,-143.34 579.11,-178.1 172.08,-34.75 314.9,-47.4 423.71,-53.73 108.8,-6.32 183.61,-6.34 253.82,-5.31 70.22,1.04 135.84,3.13 201.46,5.22z"/>
  </g>
 </g>
</svg>
